<svg width="55" height="54" viewBox="0 0 55 54" fill="none" xmlns="http://www.w3.org/2000/svg">
<path d="M38.75 4.7998H16.25C10.0368 4.7998 5 9.76944 5 15.8998V38.0998C5 44.2302 10.0368 49.1998 16.25 49.1998H38.75C44.9632 49.1998 50 44.2302 50 38.0998V15.8998C50 9.76944 44.9632 4.7998 38.75 4.7998Z" stroke="white" stroke-width="4" stroke-linecap="round" stroke-linejoin="round"/>
<path d="M36.5 25.6014C36.7777 27.449 36.4578 29.3359 35.586 30.9938C34.7141 32.6517 33.3346 33.9961 31.6437 34.8359C29.9528 35.6756 28.0365 35.9679 26.1675 35.6712C24.2985 35.3744 22.572 34.5038 21.2334 33.183C19.8948 31.8623 19.0124 30.1588 18.7117 28.3147C18.4109 26.4706 18.7072 24.5799 19.5582 22.9116C20.4093 21.2432 21.7719 19.8821 23.4522 19.0218C25.1325 18.1616 27.045 17.846 28.9175 18.12C30.8276 18.3994 32.5959 19.2776 33.9613 20.6248C35.3267 21.972 36.2168 23.7168 36.5 25.6014Z" stroke="white" stroke-width="4" stroke-linecap="round" stroke-linejoin="round"/>
<path d="M39.875 14.79H39.8975" stroke="white" stroke-width="4" stroke-linecap="round" stroke-linejoin="round"/>
</svg>
