<svg width="33" height="32" viewBox="0 0 33 32" fill="none" xmlns="http://www.w3.org/2000/svg">
<path d="M8.68085 27.7288C10.8401 27.7288 12.5904 25.9784 12.5904 23.8192C12.5904 21.66 10.8401 19.9097 8.68085 19.9097C6.52165 19.9097 4.77128 21.66 4.77128 23.8192C4.77128 25.9784 6.52165 27.7288 8.68085 27.7288Z" stroke="white" stroke-width="3.12766" stroke-linecap="round" stroke-linejoin="round"/>
<path d="M12.5904 23.8194V6.87787L28.2287 4.27148V21.213" stroke="white" stroke-width="3.12766" stroke-linecap="round" stroke-linejoin="round"/>
<path d="M24.3192 25.1229C26.4783 25.1229 28.2287 23.3725 28.2287 21.2133C28.2287 19.0541 26.4783 17.3037 24.3192 17.3037C22.16 17.3037 20.4096 19.0541 20.4096 21.2133C20.4096 23.3725 22.16 25.1229 24.3192 25.1229Z" stroke="white" stroke-width="3.12766" stroke-linecap="round" stroke-linejoin="round"/>
</svg>
