<svg width="55" height="50" viewBox="0 0 55 50" fill="none" xmlns="http://www.w3.org/2000/svg">
<path d="M44.2072 0.792969H10.6436C5.12431 0.792969 0.5 5.33176 0.5 11.0809V47.3912C0.5 48.1477 0.947514 48.7529 1.69337 49.0555C1.99171 49.2068 2.14088 49.2068 2.43923 49.2068C2.88674 49.2068 3.33425 49.0555 3.78177 48.6016L11.5387 41.1882H44.3564C49.8757 41.1882 54.5 36.6494 54.5 30.9003V10.9296C54.3508 5.33176 49.8757 0.792969 44.2072 0.792969ZM50.6215 30.9003C50.6215 34.5313 47.7873 37.4059 44.2072 37.4059H10.6436C10.1961 37.4059 9.74862 37.5572 9.30111 37.8598L4.22928 42.8525V10.9296C4.22928 7.29857 7.06354 4.424 10.6436 4.424H44.2072C47.7873 4.424 50.6215 7.29857 50.6215 10.9296V30.9003ZM40.1796 14.5606H15.7155C14.8204 14.5606 14.0746 15.3171 14.0746 16.2249C14.0746 17.1326 14.8204 17.8891 15.7155 17.8891H40.1796C41.0746 17.8891 41.8204 17.1326 41.8204 16.2249C41.8204 15.3171 41.2238 14.5606 40.1796 14.5606ZM29.2901 24.3947H15.8646C14.9696 24.3947 14.2238 25.1512 14.2238 26.0589C14.2238 26.9667 14.9696 27.7231 15.8646 27.7231H29.2901C29.8867 27.7231 30.4834 27.4206 30.7818 26.8154C31.0801 26.2102 31.0801 25.605 30.7818 25.1512C30.4834 24.6973 29.8867 24.3947 29.2901 24.3947Z" fill="white"/>
</svg>
