<svg width="58" height="58" viewBox="0 0 58 58" fill="none" xmlns="http://www.w3.org/2000/svg">
<path fill-rule="evenodd" clip-rule="evenodd" d="M28.0137 42.6336C28.0137 42.6336 27.9678 42.5628 27.8815 42.4282C27.5803 41.9601 26.846 40.8099 25.871 39.2172L21.1623 40.4459V54.4785L36.8399 50.3884V36.3558L33.2997 37.2794C32.065 39.3477 31.0338 40.9911 30.4594 41.8944C30.2333 42.2504 30.0806 42.4877 30.0183 42.5845L30.0182 42.5845L29.9868 42.6336C29.7697 42.9675 29.3991 43.1688 29.0003 43.1688C28.8462 43.1688 28.6962 43.1386 28.5576 43.0822C28.3925 43.0152 28.2436 42.9111 28.1233 42.7764C28.0835 42.732 28.0468 42.6843 28.0137 42.6336ZM31.5218 35.6632C31.5372 35.6372 31.5536 35.612 31.5708 35.5875C35.6429 28.7038 40.7586 19.0908 40.7586 14.9351C40.7586 8.45173 35.4836 3.17683 29.0004 3.17683C22.517 3.17683 17.2421 8.45184 17.2421 14.9351C17.2421 19.4165 23.1886 30.2403 27.3621 37.1471C27.3865 37.1791 27.4094 37.2127 27.4307 37.2477C28.0414 38.2572 28.5789 39.1251 29.0002 39.7982C29.6319 38.7912 30.5194 37.3522 31.5218 35.6632ZM43.1099 14.9349C43.1099 19.3221 38.6924 27.941 34.9797 34.4105L37.7189 33.6961C37.8166 33.6706 37.9162 33.6581 38.0152 33.6582C38.1144 33.6581 38.2142 33.6707 38.3122 33.6963L56.3411 38.3998C56.8589 38.5354 57.2205 39.0024 57.2205 39.5377V55.9997C57.2205 56.3636 57.0516 56.7069 56.7633 56.93C56.5556 57.0908 56.3018 57.1756 56.0446 57.1756C55.9457 57.1756 55.8459 57.1628 55.7482 57.1377L38.0152 52.5113L20.2829 57.1375L20.2577 57.1437C20.1688 57.1648 20.0776 57.1756 19.9859 57.1756C19.9563 57.1756 19.9266 57.1745 19.8969 57.1722C19.8522 57.1688 19.8075 57.1628 19.7631 57.1542C19.7385 57.1495 19.7139 57.144 19.6895 57.1377L1.65849 52.4341C1.14113 52.2989 0.779449 51.8315 0.779449 51.2962V34.8342C0.779449 34.4704 0.94835 34.127 1.23667 33.904C1.52371 33.6813 1.89818 33.6041 2.25176 33.6963L19.9855 38.3222L24.6029 37.1174C20.7091 30.5812 14.8896 19.9709 14.8896 14.9349C14.8896 7.15402 21.2191 0.824707 28.9998 0.824707C36.7805 0.824707 43.1099 7.15413 43.1099 14.9349ZM39.1913 36.3557V50.3883L54.8687 54.4784V40.4458L39.1913 36.3557ZM18.81 54.4781V40.4456L3.1326 36.3555L3.13193 50.3882L18.81 54.4781ZM20.8292 14.8458C20.8292 19.3515 24.4941 23.0169 29.0003 23.0169C33.5064 23.0169 37.1726 19.3515 37.1726 14.8454C37.1726 10.3397 33.5064 6.67434 29.0003 6.67434C24.4941 6.67434 20.8292 10.3397 20.8292 14.8458ZM23.1805 14.8455C23.1805 11.636 25.7907 9.02577 29.0003 9.02577C32.2098 9.02577 34.8209 11.636 34.8209 14.8451C34.8209 18.0546 32.2098 20.6648 29.0003 20.6648C25.7907 20.6648 23.1805 18.055 23.1805 14.8455Z" fill="white"/>
<path d="M27.8815 42.4282L28.0919 42.2932L28.0917 42.293L27.8815 42.4282ZM28.0137 42.6336L27.804 42.7696L27.8043 42.7701L28.0137 42.6336ZM25.871 39.2172L26.0843 39.0867L25.9874 38.9285L25.8079 38.9753L25.871 39.2172ZM21.1623 40.4459L21.0991 40.204L20.9123 40.2528V40.4459H21.1623ZM21.1623 54.4785H20.9123V54.8021L21.2254 54.7204L21.1623 54.4785ZM36.8399 50.3884L36.903 50.6303L37.0899 50.5816V50.3884H36.8399ZM36.8399 36.3558H37.0899V36.0322L36.7768 36.1139L36.8399 36.3558ZM33.2997 37.2794L33.2366 37.0375L33.1375 37.0634L33.085 37.1513L33.2997 37.2794ZM30.4594 41.8944L30.2484 41.7602L30.2483 41.7603L30.4594 41.8944ZM30.0183 42.5845L29.808 42.4492L29.8063 42.452L30.0183 42.5845ZM30.0182 42.5845L30.2287 42.7196L30.2302 42.717L30.0182 42.5845ZM29.9868 42.6336L30.1964 42.7698L30.1972 42.7686L29.9868 42.6336ZM28.5576 43.0822L28.6518 42.8506L28.6516 42.8505L28.5576 43.0822ZM28.1233 42.7764L28.3097 42.6099L28.3095 42.6097L28.1233 42.7764ZM31.5708 35.5875L31.7753 35.7314L31.781 35.7233L31.786 35.7148L31.5708 35.5875ZM31.5218 35.6632L31.3069 35.5353L31.3068 35.5356L31.5218 35.6632ZM27.3621 37.1471L27.1481 37.2763L27.155 37.2878L27.1631 37.2984L27.3621 37.1471ZM27.4307 37.2477L27.6446 37.1183L27.6443 37.1178L27.4307 37.2477ZM29.0002 39.7982L28.7883 39.9308L29 40.269L29.212 39.931L29.0002 39.7982ZM34.9797 34.4105L34.7628 34.286L34.4663 34.8027L35.0428 34.6524L34.9797 34.4105ZM37.7189 33.6961L37.782 33.938L37.7821 33.938L37.7189 33.6961ZM38.0152 33.6582L38.015 33.9082H38.0153L38.0152 33.6582ZM38.3122 33.6963L38.2491 33.9381L38.2491 33.9382L38.3122 33.6963ZM56.3411 38.3998L56.4044 38.1579L56.4042 38.1579L56.3411 38.3998ZM56.7633 56.93L56.6103 56.7322L56.6103 56.7323L56.7633 56.93ZM55.7482 57.1377L55.6851 57.3796L55.6859 57.3798L55.7482 57.1377ZM38.0152 52.5113L38.0783 52.2694L38.0152 52.253L37.9521 52.2694L38.0152 52.5113ZM20.2829 57.1375L20.3427 57.3803L20.3461 57.3794L20.2829 57.1375ZM20.2577 57.1437L20.3156 57.3869L20.3174 57.3865L20.2577 57.1437ZM19.8969 57.1722L19.9161 56.9229L19.9161 56.9229L19.8969 57.1722ZM19.7631 57.1542L19.7159 57.3997L19.7631 57.1542ZM19.6895 57.1377L19.6264 57.3796L19.6271 57.3798L19.6895 57.1377ZM1.65849 52.4341L1.59527 52.676L1.59538 52.676L1.65849 52.4341ZM1.23667 33.904L1.38964 34.1017L1.38989 34.1015L1.23667 33.904ZM2.25176 33.6963L2.31486 33.4544L2.3148 33.4543L2.25176 33.6963ZM19.9855 38.3222L19.9224 38.5641L19.9855 38.5806L20.0486 38.5641L19.9855 38.3222ZM24.6029 37.1174L24.666 37.3593L24.988 37.2753L24.8177 36.9895L24.6029 37.1174ZM39.1913 50.3883H38.9413V50.5815L39.1281 50.6302L39.1913 50.3883ZM39.1913 36.3557L39.2544 36.1138L38.9413 36.0321V36.3557H39.1913ZM54.8687 54.4784L54.8056 54.7203L55.1187 54.802V54.4784H54.8687ZM54.8687 40.4458H55.1187V40.2526L54.9318 40.2039L54.8687 40.4458ZM18.81 40.4456H19.06V40.2524L18.8731 40.2037L18.81 40.4456ZM18.81 54.4781L18.7469 54.72L19.06 54.8017V54.4781H18.81ZM3.1326 36.3555L3.19571 36.1136L2.88262 36.032L2.8826 36.3555L3.1326 36.3555ZM3.13193 50.3882L2.88193 50.3882L2.88193 50.5813L3.06883 50.6301L3.13193 50.3882ZM27.6711 42.5633C27.7144 42.6307 27.7476 42.6822 27.7699 42.7169C27.7811 42.7343 27.7896 42.7474 27.7953 42.7562C27.7982 42.7606 27.8003 42.764 27.8018 42.7662C27.8025 42.7673 27.8031 42.7682 27.8034 42.7687C27.8036 42.769 27.8038 42.7692 27.8039 42.7694C27.8039 42.7695 27.8039 42.7695 27.804 42.7696C27.804 42.7696 27.804 42.7696 27.804 42.7696C27.804 42.7696 27.804 42.7696 27.804 42.7696C27.804 42.7696 27.804 42.7696 27.804 42.7696C27.804 42.7696 27.804 42.7696 28.0137 42.6336C28.2235 42.4975 28.2235 42.4975 28.2235 42.4975C28.2235 42.4975 28.2235 42.4975 28.2235 42.4975C28.2235 42.4975 28.2235 42.4975 28.2234 42.4974C28.2234 42.4974 28.2234 42.4974 28.2234 42.4973C28.2233 42.4972 28.2231 42.497 28.223 42.4967C28.2226 42.4962 28.2221 42.4954 28.2214 42.4943C28.22 42.4922 28.2179 42.4889 28.2151 42.4846C28.2095 42.4759 28.2011 42.463 28.1901 42.4458C28.1679 42.4115 28.135 42.3603 28.0919 42.2932L27.6711 42.5633ZM25.6578 39.3477C26.6339 40.9423 27.3692 42.0942 27.6713 42.5635L28.0917 42.293C27.7913 41.8261 27.058 40.6774 26.0843 39.0867L25.6578 39.3477ZM21.2254 40.6878L25.9342 39.4591L25.8079 38.9753L21.0991 40.204L21.2254 40.6878ZM21.4123 54.4785V40.4459H20.9123V54.4785H21.4123ZM36.7768 50.1465L21.0991 54.2366L21.2254 54.7204L36.903 50.6303L36.7768 50.1465ZM36.5899 36.3558V50.3884H37.0899V36.3558H36.5899ZM33.3628 37.5213L36.903 36.5977L36.7768 36.1139L33.2366 37.0375L33.3628 37.5213ZM30.6703 42.0285C31.2457 41.1238 32.2782 39.4783 33.5143 37.4076L33.085 37.1513C31.8518 39.2171 30.8219 40.8585 30.2484 41.7602L30.6703 42.0285ZM30.2285 42.7198C30.2909 42.6228 30.4439 42.385 30.6704 42.0284L30.2483 41.7603C30.0226 42.1158 29.8702 42.3526 29.808 42.4492L30.2285 42.7198ZM30.2302 42.717L30.2303 42.717L29.8063 42.452L29.8062 42.452L30.2302 42.717ZM30.1972 42.7686L30.2286 42.7196L29.8078 42.4495L29.7764 42.4986L30.1972 42.7686ZM29.0003 43.4188C29.4837 43.4188 29.9332 43.1747 30.1964 42.7698L29.7772 42.4973C29.6062 42.7603 29.3144 42.9188 29.0003 42.9188V43.4188ZM28.4634 43.3138C28.6314 43.3821 28.8134 43.4188 29.0003 43.4188V42.9188C28.879 42.9188 28.7609 42.895 28.6518 42.8506L28.4634 43.3138ZM27.9368 42.943C28.0828 43.1064 28.2634 43.2326 28.4636 43.3139L28.6516 42.8505C28.5215 42.7978 28.4043 42.7158 28.3097 42.6099L27.9368 42.943ZM27.8043 42.7701C27.8444 42.8315 27.8888 42.8894 27.937 42.9432L28.3095 42.6097C28.2782 42.5747 28.2493 42.5371 28.2232 42.497L27.8043 42.7701ZM31.3664 35.4436C31.3455 35.4733 31.3257 35.5039 31.3069 35.5353L31.7366 35.791C31.7488 35.7706 31.7617 35.7507 31.7753 35.7314L31.3664 35.4436ZM40.5086 14.9351C40.5086 15.9319 40.1999 17.2803 39.659 18.8665C39.1199 20.4476 38.3574 22.2446 37.4657 24.1315C35.6824 27.9049 33.3897 32.0217 31.3557 35.4602L31.786 35.7148C33.824 32.2696 36.1252 28.1381 37.9178 24.3451C38.814 22.4488 39.5849 20.6332 40.1323 19.0279C40.6779 17.4278 41.0086 16.0162 41.0086 14.9351H40.5086ZM29.0004 3.42683C35.3456 3.42683 40.5086 8.5898 40.5086 14.9351H41.0086C41.0086 8.31366 35.6217 2.92683 29.0004 2.92683V3.42683ZM17.4921 14.9351C17.4921 8.58991 22.6551 3.42683 29.0004 3.42683V2.92683C22.3789 2.92683 16.9921 8.31377 16.9921 14.9351H17.4921ZM27.5761 37.0178C25.4913 33.5678 22.9656 29.1423 20.9618 25.0222C19.9599 22.962 19.0904 20.9822 18.472 19.2414C17.8514 17.4944 17.4921 16.011 17.4921 14.9351H16.9921C16.9921 16.1 17.3761 17.65 18.0009 19.4087C18.6278 21.1736 19.5058 23.1716 20.5122 25.2409C22.5251 29.3798 25.0593 33.8196 27.1481 37.2763L27.5761 37.0178ZM27.6443 37.1178C27.6185 37.0753 27.5907 37.0346 27.5611 36.9957L27.1631 37.2984C27.1823 37.3236 27.2003 37.35 27.2171 37.3776L27.6443 37.1178ZM29.2121 39.6655C28.7913 38.9934 28.2546 38.1265 27.6446 37.1183L27.2168 37.3771C27.8283 38.3879 28.3664 39.2569 28.7883 39.9308L29.2121 39.6655ZM31.3068 35.5356C30.3057 37.2225 29.4192 38.6598 28.7884 39.6653L29.212 39.931C29.8446 38.9226 30.7332 37.4818 31.7368 35.7907L31.3068 35.5356ZM35.1965 34.5349C37.0548 31.2969 39.0919 27.5166 40.6653 23.9938C42.233 20.4838 43.3599 17.1878 43.3599 14.9349H42.8599C42.8599 17.0692 41.7781 20.2763 40.2088 23.7899C38.6452 27.2908 36.6173 31.0546 34.7628 34.286L35.1965 34.5349ZM37.6559 33.4542L34.9166 34.1686L35.0428 34.6524L37.782 33.938L37.6559 33.4542ZM38.0154 33.4082C37.8952 33.4081 37.7744 33.4232 37.6558 33.4542L37.7821 33.938C37.8589 33.9179 37.9371 33.9081 38.015 33.9082L38.0154 33.4082ZM38.3754 33.4544C38.2565 33.4233 38.1354 33.4081 38.0151 33.4082L38.0153 33.9082C38.0933 33.9081 38.1719 33.918 38.2491 33.9381L38.3754 33.4544ZM56.4042 38.1579L38.3753 33.4544L38.2491 33.9382L56.278 38.6417L56.4042 38.1579ZM57.4705 39.5377C57.4705 38.8884 57.0318 38.3223 56.4044 38.1579L56.2777 38.6416C56.6859 38.7486 56.9705 39.1165 56.9705 39.5377H57.4705ZM57.4705 55.9997V39.5377H56.9705V55.9997H57.4705ZM56.9163 57.1277C57.2656 56.8575 57.4705 56.4412 57.4705 55.9997H56.9705C56.9705 56.2859 56.8377 56.5563 56.6103 56.7322L56.9163 57.1277ZM56.0446 57.4256C56.3566 57.4256 56.6644 57.3227 56.9164 57.1276L56.6103 56.7323C56.4469 56.8588 56.247 56.9256 56.0446 56.9256V57.4256ZM55.6859 57.3798C55.8035 57.4101 55.9242 57.4256 56.0446 57.4256V56.9256C55.9672 56.9256 55.8883 56.9156 55.8106 56.8956L55.6859 57.3798ZM37.9521 52.7532L55.6851 57.3796L55.8113 56.8958L38.0783 52.2694L37.9521 52.7532ZM20.3461 57.3794L38.0783 52.7532L37.9521 52.2694L20.2198 56.8956L20.3461 57.3794ZM20.3174 57.3865L20.3427 57.3802L20.2232 56.8947L20.1979 56.9009L20.3174 57.3865ZM19.9859 57.4256C20.0972 57.4256 20.2078 57.4125 20.3156 57.3869L20.1998 56.9005C20.1298 56.9171 20.058 56.9256 19.9859 56.9256V57.4256ZM19.8778 57.4215C19.9138 57.4242 19.9499 57.4256 19.9859 57.4256V56.9256C19.9628 56.9256 19.9395 56.9247 19.9161 56.9229L19.8778 57.4215ZM19.7159 57.3997C19.7695 57.41 19.8236 57.4173 19.8778 57.4215L19.9161 56.9229C19.8809 56.9202 19.8456 56.9155 19.8103 56.9087L19.7159 57.3997ZM19.6271 57.3798C19.6565 57.3873 19.6862 57.394 19.7159 57.3997L19.8103 56.9087C19.7908 56.905 19.7713 56.9006 19.7519 56.8956L19.6271 57.3798ZM1.59538 52.676L19.6264 57.3796L19.7526 56.8958L1.72159 52.1922L1.59538 52.676ZM0.529449 51.2962C0.529449 51.9454 0.96804 52.5121 1.59527 52.676L1.7217 52.1923C1.31422 52.0858 1.02945 51.7176 1.02945 51.2962H0.529449ZM0.529449 34.8342V51.2962H1.02945V34.8342H0.529449ZM1.08369 33.7062C0.734401 33.9765 0.529449 34.3927 0.529449 34.8342H1.02945C1.02945 34.548 1.1623 34.2776 1.38964 34.1017L1.08369 33.7062ZM2.3148 33.4543C1.88622 33.3427 1.43183 33.4362 1.08344 33.7064L1.38989 34.1015C1.61558 33.9265 1.91015 33.8656 2.18872 33.9382L2.3148 33.4543ZM20.0486 38.0803L2.31486 33.4544L2.18866 33.9382L19.9224 38.5641L20.0486 38.0803ZM24.5398 36.8755L19.9224 38.0803L20.0486 38.5641L24.666 37.3593L24.5398 36.8755ZM14.6396 14.9349C14.6396 16.2346 15.0136 17.8726 15.6228 19.6859C16.2335 21.5036 17.087 23.516 18.0602 25.5706C20.0066 29.68 22.4395 33.9743 24.3881 37.2453L24.8177 36.9895C22.8725 33.7243 20.4487 29.4454 18.512 25.3566C17.5436 23.3121 16.6989 21.3191 16.0968 19.5267C15.4931 17.73 15.1396 16.1532 15.1396 14.9349H14.6396ZM28.9998 0.574707C21.081 0.574707 14.6396 7.01595 14.6396 14.9349H15.1396C15.1396 7.29209 21.3571 1.07471 28.9998 1.07471V0.574707ZM43.3599 14.9349C43.3599 7.01606 36.9186 0.574707 28.9998 0.574707V1.07471C36.6424 1.07471 42.8599 7.2922 42.8599 14.9349H43.3599ZM39.4413 50.3883V36.3557H38.9413V50.3883H39.4413ZM54.9318 54.2365L39.2544 50.1464L39.1281 50.6302L54.8056 54.7203L54.9318 54.2365ZM54.6187 40.4458V54.4784H55.1187V40.4458H54.6187ZM39.1281 36.5976L54.8056 40.6877L54.9318 40.2039L39.2544 36.1138L39.1281 36.5976ZM18.56 40.4456V54.4781H19.06V40.4456H18.56ZM3.06949 36.5974L18.7469 40.6875L18.8731 40.2037L3.19571 36.1136L3.06949 36.5974ZM3.38193 50.3882L3.3826 36.3556L2.8826 36.3555L2.88193 50.3882L3.38193 50.3882ZM18.8731 54.2362L3.19504 50.1463L3.06883 50.6301L18.7469 54.72L18.8731 54.2362ZM29.0003 22.7669C24.6322 22.7669 21.0792 19.2135 21.0792 14.8458H20.5792C20.5792 19.4896 24.3561 23.2669 29.0003 23.2669V22.7669ZM36.9226 14.8454C36.9226 19.2134 33.3683 22.7669 29.0003 22.7669V23.2669C33.6444 23.2669 37.4226 19.4896 37.4226 14.8454H36.9226ZM29.0003 6.92434C33.3683 6.92434 36.9226 10.4778 36.9226 14.8454H37.4226C37.4226 10.2016 33.6444 6.42434 29.0003 6.42434V6.92434ZM21.0792 14.8458C21.0792 10.4778 24.6322 6.92434 29.0003 6.92434V6.42434C24.356 6.42434 20.5792 10.2017 20.5792 14.8458H21.0792ZM29.0003 8.77577C25.6527 8.77577 22.9305 11.4979 22.9305 14.8455H23.4305C23.4305 11.7741 25.9288 9.27577 29.0003 9.27577V8.77577ZM35.0709 14.8451C35.0709 11.4978 32.3478 8.77577 29.0003 8.77577V9.27577C32.0718 9.27577 34.5709 11.7741 34.5709 14.8451H35.0709ZM29.0003 20.9148C32.3478 20.9148 35.0709 18.1927 35.0709 14.8451H34.5709C34.5709 17.9165 32.0718 20.4148 29.0003 20.4148V20.9148ZM22.9305 14.8455C22.9305 18.1931 25.6527 20.9148 29.0003 20.9148V20.4148C25.9288 20.4148 23.4305 17.9169 23.4305 14.8455H22.9305Z" fill="white"/>
</svg>
