<svg width="83" height="52" viewBox="0 0 83 52" fill="none" xmlns="http://www.w3.org/2000/svg">
<path d="M8.78409 21.6926C8.78409 20.4881 9.76049 19.5117 10.965 19.5117C12.1694 19.5117 13.1458 20.4881 13.1458 21.6926V30.3371C13.1458 31.5416 12.1694 32.518 10.965 32.518C9.76049 32.518 8.78409 31.5416 8.78409 30.3371V21.6926Z" fill="white"/>
<path d="M69.8541 21.6926C69.8541 20.4881 70.8306 19.5117 72.035 19.5117C73.2395 19.5117 74.2159 20.4881 74.2159 21.6926V30.3371C74.2159 31.5416 73.2395 32.518 72.035 32.518C70.8306 32.518 69.8541 31.5416 69.8541 30.3371V21.6926Z" fill="white"/>
<path d="M52.4064 21.6926C52.4064 20.4881 53.3828 19.5117 54.5872 19.5117C55.7917 19.5117 56.7681 20.4881 56.7681 21.6926V30.3371C56.7681 31.5416 55.7917 32.518 54.5872 32.518C53.3828 32.518 52.4064 31.5416 52.4064 30.3371V21.6926Z" fill="white"/>
<path d="M34.9583 21.6926C34.9583 20.4881 35.9347 19.5117 37.1391 19.5117C38.3436 19.5117 39.32 20.4881 39.32 21.6926V30.3371C39.32 31.5416 38.3436 32.518 37.1391 32.518C35.9347 32.518 34.9583 31.5416 34.9583 30.3371V21.6926Z" fill="white"/>
<path d="M17.5104 15.1882C17.5104 13.9837 18.4868 13.0073 19.6913 13.0073C20.8958 13.0073 21.8722 13.9837 21.8722 15.1882V36.8265C21.8722 38.0309 20.8958 39.0073 19.6913 39.0073C18.4868 39.0073 17.5104 38.0309 17.5104 36.8265V15.1882Z" fill="white"/>
<path d="M43.68 15.1882C43.68 13.9837 44.6564 13.0073 45.8609 13.0073C47.0653 13.0073 48.0417 13.9837 48.0417 15.1882V36.8265C48.0417 38.0309 47.0653 39.0073 45.8609 39.0073C44.6564 39.0073 43.68 38.0309 43.68 36.8265V15.1882Z" fill="white"/>
<path d="M61.2601 8.68331C61.2601 7.47885 62.2365 6.50244 63.441 6.50244C64.6454 6.50244 65.6218 7.47885 65.6218 8.68331V43.3146C65.6218 44.5191 64.6454 45.4955 63.441 45.4955C62.2365 45.4955 61.2601 44.5191 61.2601 43.3146V8.68331Z" fill="white"/>
<path d="M26.2459 2.18087C26.2459 0.976407 27.2223 0 28.4268 0C29.6312 0 30.6076 0.976407 30.6076 2.18087V49.8191C30.6076 51.0236 29.6312 52 28.4268 52C27.2223 52 26.2459 51.0236 26.2459 49.8191V2.18087Z" fill="white"/>
<path d="M0.0626373 26.0144C0.0626373 24.8172 1.04629 23.8467 2.2435 23.8467C3.44072 23.8467 4.42437 24.8172 4.42437 26.0144C4.42437 27.2116 3.44072 28.1822 2.2435 28.1822C1.04629 28.1822 0.0626373 27.2116 0.0626373 26.0144Z" fill="white"/>
<path d="M78.5756 26.0144C78.5756 24.8172 79.5593 23.8467 80.7565 23.8467C81.9537 23.8467 82.9374 24.8172 82.9374 26.0144C82.9374 27.2116 81.9537 28.1822 80.7565 28.1822C79.5593 28.1822 78.5756 27.2116 78.5756 26.0144Z" fill="white"/>
</svg>
