<svg width="69" height="68" viewBox="0 0 69 68" fill="none" xmlns="http://www.w3.org/2000/svg">
<path d="M58.6833 11.0878C60.8054 11.0878 62.5032 9.4432 62.5563 7.37405C62.5563 5.30503 60.9117 3.60731 58.7895 3.5542C56.6674 3.5542 54.9697 5.1988 54.9166 7.26795V7.321C54.9166 9.39003 56.5612 11.0878 58.6833 11.0878ZM58.6833 5.67634C59.5852 5.67634 60.381 6.41909 60.381 7.32094C60.381 8.22279 59.6383 8.96554 58.7364 9.01865C57.8345 9.01865 57.0387 8.2759 57.0387 7.37405C57.0387 6.41909 57.7284 5.67634 58.6833 5.67634Z" fill="white"/>
<path d="M15.4983 11.0878C17.6204 11.0878 19.3182 9.4432 19.3713 7.37405C19.4244 5.30491 17.7267 3.60731 15.6045 3.5542C13.4824 3.5542 11.7847 5.1988 11.7316 7.26795V7.321C11.7316 9.39003 13.3762 11.0878 15.4983 11.0878ZM15.4983 5.67634C16.4002 5.67634 17.196 6.41909 17.196 7.32094C17.196 8.22279 16.4533 8.96554 15.5514 9.01865C14.6495 9.01865 13.8537 8.2759 13.8537 7.37405C13.8537 6.41909 14.5434 5.67634 15.4983 5.67634Z" fill="white"/>
<path d="M35.3396 32.2028C37.0373 32.2028 38.4167 30.8764 38.4697 29.1787C38.5227 27.481 37.1433 26.1016 35.4456 26.1016C33.7478 26.1016 32.3685 27.428 32.3155 29.1257V29.1787C32.3155 30.8233 33.6419 32.2028 35.3396 32.2028ZM35.3396 28.2238C35.8701 28.2238 36.2945 28.6483 36.2945 29.1257C36.2945 29.6563 35.8701 30.0807 35.3926 30.0807C34.8621 30.0807 34.4377 29.6563 34.4377 29.1788C34.3846 28.6483 34.809 28.2238 35.3396 28.2238Z" fill="white"/>
<path d="M67.9674 65.9454V44.7773C67.9674 44.1937 67.49 43.7163 66.9064 43.7163H46.7994L53.0597 37.0845C53.2719 36.8723 53.378 36.607 53.325 36.3418L53.1658 30.3466C53.1658 30.0814 53.0597 29.8161 52.8475 29.6039L47.0116 23.9802H66.853C67.4366 23.9802 67.9141 23.5027 67.9141 22.9191V1.06107C67.9141 0.477482 67.4366 0 66.853 0H45.3139C44.7303 0 44.2528 0.477482 44.2528 1.06107V21.3803L37.2497 14.6425C37.0375 14.4303 36.7723 14.3242 36.507 14.3242L30.565 14.4834C30.2997 14.4834 30.0344 14.5895 29.8222 14.8017L24.1986 20.7437V1.06113C24.1986 0.477543 23.7211 6.06326e-05 23.1375 6.06326e-05H1.59834C1.01475 6.06326e-05 0.537269 0.477543 0.537269 1.06113V22.9192C0.537269 23.5028 1.01475 23.9803 1.59834 23.9803H21.1221L14.8087 30.665C14.3843 31.0894 14.4374 31.7791 14.8618 32.1505L17.143 34.3258L14.9678 36.607C14.5433 37.0314 14.5964 37.7211 15.0208 38.0925L20.8567 43.7162H1.59858C1.01499 43.7162 0.537512 44.1937 0.537512 44.7773V66.6353V66.6884C0.484459 67.2189 0.80278 67.6964 1.33332 67.8025C1.59858 67.8556 1.91691 67.8025 2.18217 67.6433H22.6081C22.7673 67.7495 22.9795 67.8025 23.1917 67.8025C23.5631 67.8025 23.8814 67.6433 24.0936 67.325C24.1997 67.1128 24.3058 66.9006 24.2528 66.6353V66.5823V46.9519L30.6192 53.0529C31.0436 53.4774 31.6803 53.4243 32.1047 53.0529C32.5291 52.6285 32.4761 51.9388 32.0516 51.5675L17.1966 37.3491L18.629 35.8105L33.484 50.0288C33.9084 50.4533 34.5451 50.4002 34.9695 50.0288L35.0226 49.9758L36.8794 48.0127L39.2137 50.294C39.6382 50.7184 40.2748 50.7184 40.6992 50.294L44.3069 46.4741V66.74C44.3069 67.2705 44.7313 67.748 45.2618 67.801C45.6332 68.0663 46.0577 68.0663 46.429 67.801H66.8549C67.0141 67.9072 67.2263 67.9602 67.4385 67.9602C67.8099 67.9602 68.1282 67.801 68.3404 67.4827C68.6057 66.9522 68.4466 66.3156 67.9691 65.9441L67.9674 65.9454ZM3.08323 65.6271C4.0382 62.7622 5.6298 59.4729 7.06219 59.1015C7.22135 59.0485 7.69883 58.9424 8.54769 59.9504C9.71487 61.3298 10.7759 61.9664 11.837 61.9664C13.2694 61.9134 14.2245 60.7463 15.0202 59.6852C16.1874 58.1466 16.5057 58.0406 17.1424 58.3588C18.6279 59.2076 19.1584 60.9585 19.7421 62.8153C20.0073 63.7702 20.3256 64.7252 20.8031 65.6272L3.08323 65.6271ZM22.0758 63.2927C21.9697 62.9213 21.8636 62.55 21.7044 62.1786C21.0678 60.1096 20.378 57.7752 18.1499 56.5019C15.8155 55.1755 14.2769 57.1916 13.3221 58.4118C12.7916 59.1015 12.208 59.8442 11.7835 59.8442C11.5713 59.8442 11.0938 59.7381 10.1389 58.6241C8.75948 56.9795 7.4332 56.8732 6.58434 57.0854C4.93974 57.4568 3.61335 59.2076 2.60539 61.1706V45.8378H22.0757L22.0758 63.2927ZM46.746 21.8576C47.701 18.9397 49.3457 15.4912 50.8312 15.1728C50.9904 15.1198 51.4678 15.0137 52.3167 16.0217C53.4839 17.4011 54.5449 18.0377 55.606 18.0377C57.0384 17.9847 57.9935 16.8176 58.7892 15.7565C59.9564 14.2179 60.2747 14.1119 60.9114 14.4301C62.3969 15.2789 62.9274 17.0298 63.5111 18.8866C63.7763 19.9477 64.1477 20.9556 64.6252 21.9107L46.746 21.8576ZM46.3746 2.12166H65.845V19.4699C65.6858 19.0985 65.5797 18.6741 65.4736 18.2497C64.837 16.1807 64.1472 13.8463 61.9191 12.573C59.5847 11.2466 58.0461 13.2627 57.0913 14.483C56.5607 15.1727 55.9771 15.9153 55.5527 15.9153C55.3404 15.9153 54.863 15.8092 53.9081 14.6952C52.5287 13.0506 51.2024 12.9443 50.3535 13.1566C48.7619 13.5279 47.4356 15.2787 46.4276 17.1886V2.12141L46.3746 2.12166ZM2.6585 2.12166H22.1289V17.6667C21.5453 15.7567 20.7495 13.6877 18.7334 12.5735C16.3991 11.2471 14.8605 13.2632 13.9056 14.4834C13.3751 15.1731 12.7915 15.9158 12.367 15.9158C12.1548 15.9158 11.6773 15.8097 10.7224 14.6957C9.34301 13.0511 8.01673 12.9448 7.16787 13.157C5.20483 13.5815 3.71933 16.0219 2.65826 18.3033L2.6585 2.12166ZM3.56041 21.8576C4.51538 18.9397 6.1601 15.4912 7.6456 15.1728C7.80476 15.1198 8.28224 15.0137 9.1311 16.0217C10.2983 17.4011 11.3593 18.0377 12.4204 18.0377C13.8528 17.9847 14.8079 16.8176 15.6036 15.7565C16.7708 14.2179 17.0891 14.1119 17.7258 14.4301C19.2113 15.2789 19.7418 17.0298 20.3255 18.8866C20.5907 19.9477 20.9621 20.9556 21.4396 21.9107L3.56041 21.8576ZM20.1131 34.2727L33.6948 19.9489L47.7543 33.4772L41.8655 39.6845C41.2288 39.2071 40.9105 38.2522 40.5922 37.0849C40.1147 35.4933 39.5841 33.7425 37.8334 32.7345C35.8703 31.6734 34.6502 33.3181 33.9604 34.22C33.7482 34.5383 33.2177 35.1749 33.0585 35.1749C33.0585 35.1749 32.7402 35.1749 32.0505 34.3791C30.9364 33.1058 29.8752 32.9997 29.1856 33.159C27.1166 33.6364 25.684 36.9257 24.9944 38.9419L20.1131 34.2727ZM34.1726 47.7477L26.639 40.5324C27.3818 38.039 28.6551 35.4393 29.61 35.2271C29.8753 35.174 30.1936 35.4923 30.4058 35.7576C31.3077 36.8187 32.1566 37.3492 33.0585 37.2962C34.2787 37.2432 35.0215 36.2882 35.6051 35.4924C36.4539 34.3783 36.56 34.4313 36.7722 34.5905C37.7803 35.1741 38.1516 36.3943 38.5231 37.6676C38.8945 38.8878 39.3189 40.2673 40.3799 41.1691L34.1726 47.7477ZM39.9024 48.013L38.3108 46.4744L50.0357 34.1126C50.4601 33.6882 50.4071 32.9985 49.9826 32.6271L34.3855 17.7187C34.1733 17.5065 33.908 17.4004 33.6428 17.4004C33.3775 17.4004 33.1122 17.5065 32.9 17.7187L18.5761 32.7859L17.0375 31.3004L24.1467 23.8729C24.3059 23.7668 24.465 23.6607 24.5711 23.5016C24.6242 23.4485 24.6242 23.3955 24.6242 23.3424L31.0437 16.5516L36.1369 16.4455L51.0986 30.7693L51.2047 35.8624L39.9024 48.013ZM47.3299 65.6268C48.2849 62.7619 49.8765 59.4726 51.3089 59.1012C51.468 59.0482 51.9455 58.9421 52.7944 59.9501C53.9615 61.3295 55.0226 61.9661 56.0837 61.9661C57.5161 61.9131 58.4712 60.746 59.2669 59.6849C60.4341 58.1463 60.7524 58.0403 61.389 58.3585C62.8745 59.2073 63.4051 60.9582 63.9887 62.815C64.254 63.7699 64.5723 64.7249 65.0498 65.6269L47.3299 65.6268ZM65.8459 61.7008C65.2623 59.7378 64.4665 57.6687 62.3974 56.5016C60.063 55.1752 58.5244 57.1912 57.5695 58.4115C57.039 59.1012 56.4554 59.8439 56.0309 59.8439C55.8187 59.8439 55.3412 59.7378 54.3863 58.6237C53.0069 56.9791 51.6807 56.8729 50.8318 57.0851C48.9219 57.5095 47.3833 59.897 46.3753 62.1782V45.8377H65.8457L65.8459 61.7008Z" fill="white"/>
<path d="M59.2146 55.0165C61.3368 55.0165 63.0345 53.3719 63.0876 51.3028C63.0876 49.2337 61.443 47.536 59.3209 47.4829C57.1987 47.4829 55.501 49.1275 55.4479 51.1967V51.2497C55.4479 53.3187 57.0925 55.0165 59.2146 55.0165ZM59.2146 49.6051C60.1166 49.6051 60.9124 50.3478 60.9124 51.2497C60.9124 52.1515 60.1696 52.8943 59.2678 52.9474C58.3659 52.9474 57.57 52.2046 57.57 51.3028C57.517 50.3478 58.2597 49.6051 59.2146 49.6051Z" fill="white"/>
<path d="M14.9673 55.0165C17.0894 55.0165 18.7871 53.3719 18.8403 51.3028C18.8403 49.2337 17.1957 47.536 15.0735 47.4829C12.9514 47.4829 11.2537 49.1275 11.2005 51.1967V51.2497C11.2005 53.3187 12.8451 55.0165 14.9673 55.0165ZM14.9673 49.6051C15.8692 49.6051 16.665 50.3478 16.665 51.2497C16.665 52.1515 15.9223 52.8943 15.0204 52.9474C14.1186 53.0005 13.3227 52.2046 13.3227 51.3028C13.3227 50.3478 14.0654 49.6051 14.9673 49.6051Z" fill="white"/>
</svg>
