<svg width="58" height="61" viewBox="0 0 58 61" fill="none" xmlns="http://www.w3.org/2000/svg">
<path fill-rule="evenodd" clip-rule="evenodd" d="M48.2654 7.37247V31.1819L48.2658 31.1818C51.0124 32.4131 53.344 34.4119 54.9797 36.9384C56.6159 39.4643 57.4867 42.4098 57.4867 45.4194C57.4867 54.0085 50.4678 61 41.8793 61C36.7049 60.9858 31.872 58.4159 28.9662 54.1341H7.3887C3.34387 54.1341 0 50.8269 0 46.7826V7.37247C0 3.32804 3.34387 0 7.3887 0H40.8663C44.9111 0 48.2654 3.32817 48.2654 7.37247ZM30.8636 34.4754C33.6845 31.5413 37.6131 29.8705 41.9105 29.8705L41.9101 29.8698C43.059 29.8635 44.2055 29.9778 45.3309 30.2109V19.8043H2.9337V34.4754H30.8636ZM19.1254 44.0115C19.1254 44.4977 19.5194 44.8917 20.0057 44.8917H26.3119C26.3319 44.3023 26.3842 43.715 26.4691 43.1313H20.0057C19.5194 43.1313 19.1254 43.5253 19.1254 44.0115ZM40.8667 2.93446H7.3891H7.38856C6.21224 2.94232 5.0858 3.41178 4.25273 4.24223C3.41966 5.07223 2.94601 6.19657 2.93396 7.37283V16.8714H45.3312V7.37283C45.3312 4.94641 43.2931 2.93446 40.8667 2.93446ZM2.93396 46.7824C2.93396 49.2088 4.96161 51.1999 7.3891 51.1999H27.41C26.973 50.1148 26.6644 48.9826 26.491 47.8257H20.0055C18.6428 47.8257 17.3837 47.0984 16.702 45.9185C16.0209 44.7386 16.0209 43.284 16.702 42.1041C17.3837 40.9241 18.6428 40.1969 20.0055 40.1969H27.1988C27.5457 39.2192 28.0026 38.2845 28.5595 37.4095H2.93396V46.7824ZM32.9398 54.3552C35.3106 56.7259 38.5261 58.0578 41.8793 58.0578L41.8788 58.058C45.2304 58.0542 48.4438 56.7208 50.8142 54.351C53.1845 51.9806 54.5174 48.7673 54.5211 45.4156C54.5211 42.0629 53.1893 38.847 50.8185 36.4761C48.4477 34.1053 45.2322 32.7735 41.8789 32.7735C38.5261 32.7735 35.3107 34.1052 32.9398 36.4761C30.569 38.8469 29.2372 42.0629 29.2372 45.4156C29.2372 48.7684 30.5689 51.9843 32.9398 54.3552ZM20.0055 13.9367H28.2493C29.612 13.9367 30.8711 13.2095 31.5522 12.0295C32.2339 10.8496 32.2339 9.39507 31.5522 8.21512C30.8711 7.03519 29.612 6.30792 28.2493 6.30792H20.0055C18.6427 6.30792 17.3837 7.03516 16.702 8.21512C16.0209 9.39505 16.0209 10.8496 16.702 12.0295C17.3837 13.2094 18.6427 13.9367 20.0055 13.9367ZM20.0055 9.24216H28.2493C28.7355 9.24216 29.1295 9.63616 29.1295 10.1224C29.1295 10.6086 28.7355 11.0026 28.2493 11.0026H20.0055C19.5193 11.0026 19.1253 10.6086 19.1253 10.1224C19.1253 9.63616 19.5193 9.24216 20.0055 9.24216ZM28.2491 23.3255H20.0053C18.6426 23.3255 17.3835 24.0527 16.7018 25.2327C16.0207 26.4126 16.0207 27.8672 16.7018 29.0471C17.3835 30.227 18.6426 30.9543 20.0053 30.9543H28.2491C29.6119 30.9543 30.871 30.2271 31.5521 29.0471C32.2337 27.8672 32.2337 26.4126 31.5521 25.2327C30.8709 24.0528 29.6119 23.3255 28.2491 23.3255ZM28.2491 28.0201H20.0053C19.5191 28.0201 19.1251 27.6261 19.1251 27.1398C19.1251 26.6536 19.5191 26.2596 20.0053 26.2596H28.2491C28.7353 26.2596 29.1293 26.6536 29.1293 27.1398C29.1293 27.6261 28.7353 28.0201 28.2491 28.0201ZM40.411 44.0102H36.8818C36.0718 44.0102 35.4147 44.6672 35.4147 45.4773C35.4147 46.2874 36.0717 46.9445 36.8818 46.9445H40.411V50.4734C40.411 51.2834 41.068 51.9405 41.8781 51.9405C42.6882 51.9405 43.3452 51.2835 43.3452 50.4734V46.9445H46.8745C47.6845 46.9445 48.3416 46.2874 48.3416 45.4773C48.3416 44.6672 47.6846 44.0102 46.8745 44.0102H43.3452V40.4807C43.3452 39.6707 42.6882 39.0136 41.8781 39.0136C41.068 39.0136 40.411 39.6706 40.411 40.4807V44.0102Z" fill="white"/>
</svg>
