<svg width="97" height="40" viewBox="0 0 97 40" fill="none" xmlns="http://www.w3.org/2000/svg">
<path d="M63.0372 0H33.7534C32.6706 0 31.7924 0.878919 31.7924 1.96095V37.9512C31.7924 39.0339 32.6713 39.9121 33.7534 39.9121H63.0372C64.12 39.9121 64.9982 39.0332 64.9982 37.9512L64.9989 1.9627C64.9989 0.879951 64.1199 0.00105003 63.0379 0.00105003L63.0372 0ZM61.0756 35.9902H35.714V3.92226H61.0756V35.9902Z" fill="white"/>
<path d="M27.0384 6.48242H14.0734C12.9906 6.48242 12.1124 7.36134 12.1124 8.44337V31.4674C12.1124 32.5501 12.9913 33.4283 14.0734 33.4283H27.0384C28.1211 33.4283 28.9993 32.5494 28.9993 31.4674V8.44513C28.9993 7.36101 28.1204 6.48347 27.0384 6.48347V6.48242ZM25.0774 29.5064H16.0343V10.4047H25.0774V29.5064Z" fill="white"/>
<path d="M82.7185 6.48242H69.7528C68.6701 6.48242 67.7919 7.36134 67.7919 8.44337V31.4674C67.7919 32.5501 68.6708 33.4283 69.7528 33.4283H82.7185C83.8013 33.4283 84.6795 32.5494 84.6795 31.4674L84.6801 8.44513C84.6801 7.36101 83.8012 6.48347 82.7185 6.48347L82.7185 6.48242ZM80.7576 29.5064H71.714V10.4047H80.7576V29.5064Z" fill="white"/>
<path d="M4.53667 19.9565L8.8916 14.884C9.59679 14.0625 9.50241 12.8238 8.68094 12.1186C7.85811 11.4128 6.62071 11.5065 5.91557 12.3293L0.464863 18.6795C0.453919 18.6925 0.44708 18.7062 0.437504 18.7185C0.391676 18.7752 0.354058 18.8354 0.31507 18.8949C0.282923 18.9449 0.248722 18.9928 0.22068 19.0441C0.189216 19.1036 0.165961 19.1665 0.141338 19.2287C0.118766 19.2855 0.0934596 19.3416 0.076361 19.399C0.0578931 19.4606 0.0476328 19.5228 0.0360044 19.5851C0.0243767 19.6466 0.0106975 19.7068 0.00454098 19.7684C-0.00161486 19.832 0.000437059 19.8956 0.000437059 19.9606C0.000437059 20.0215 -0.00161477 20.081 0.00317301 20.1419C0.00932902 20.2069 0.0236937 20.2705 0.0366897 20.3348C0.0483175 20.3943 0.0572098 20.4524 0.074993 20.5112C0.0927762 20.5728 0.118083 20.6296 0.142708 20.6897C0.16733 20.7506 0.189902 20.8094 0.219998 20.8669C0.247358 20.9209 0.282926 20.9702 0.315758 21.0208C0.354061 21.0796 0.390997 21.1384 0.43614 21.1932C0.447083 21.2068 0.452555 21.2205 0.463499 21.2335L5.91421 27.583C6.30272 28.0351 6.85196 28.2663 7.40393 28.2663C7.85604 28.2663 8.31022 28.111 8.68094 27.7937C9.50241 27.0878 9.5968 25.8504 8.8916 25.0283L4.53667 19.9565Z" fill="white"/>
<path d="M96.5707 20.8665C96.6001 20.8084 96.6234 20.7489 96.6473 20.688C96.6706 20.6292 96.6973 20.5711 96.715 20.5109C96.7328 20.452 96.7417 20.3925 96.7534 20.3323C96.7663 20.2687 96.78 20.2058 96.7855 20.1422C96.7923 20.0806 96.7896 20.0184 96.7896 19.9562C96.7896 19.8932 96.7923 19.8317 96.7855 19.7701C96.7793 19.7065 96.765 19.6436 96.7534 19.58C96.7417 19.5191 96.7328 19.4596 96.715 19.4008C96.6966 19.3399 96.6706 19.2825 96.6473 19.2236C96.6241 19.1641 96.6001 19.1033 96.5707 19.0451C96.542 18.9925 96.5078 18.9432 96.475 18.8933C96.436 18.8338 96.3984 18.7749 96.3532 18.7189C96.3423 18.7059 96.3354 18.6922 96.3259 18.6799L90.8752 12.3318C90.1693 11.5103 88.9307 11.4152 88.1098 12.1211C87.2883 12.827 87.1932 14.0644 87.8991 14.8865L92.2527 19.9569L87.8991 25.0301C87.1932 25.8515 87.2883 27.0903 88.1098 27.7954C88.4805 28.1128 88.9347 28.268 89.3868 28.268C89.9388 28.268 90.488 28.0369 90.8765 27.5848L96.3272 21.2339C96.3382 21.2209 96.345 21.2072 96.3546 21.1935C96.3997 21.1388 96.4367 21.08 96.475 21.0211C96.5071 20.9685 96.5427 20.9199 96.5707 20.8665Z" fill="white"/>
</svg>
