<svg width="50" height="54" viewBox="0 0 50 54" fill="none" xmlns="http://www.w3.org/2000/svg">
<path d="M40.6316 25.5782C40.6316 27.5559 39.0281 29.1593 37.0504 29.1593C35.0728 29.1593 33.4697 27.5559 33.4697 25.5782C33.4697 23.6005 35.0728 21.9971 37.0504 21.9971C39.0281 21.9971 40.6316 23.6005 40.6316 25.5782Z" fill="white"/>
<path d="M49.2715 18.8148C49.2715 16.6547 47.5095 14.8926 45.3493 14.8926H4.65069C2.49061 14.8926 0.728516 16.6546 0.728516 18.8148V50.0777C0.728516 52.2378 2.49051 53.9999 4.65069 53.9999H45.3493C47.5094 53.9999 49.2715 52.2379 49.2715 50.0777V18.8148ZM4.65079 18.6443H45.3494C45.4632 18.6443 45.5199 18.7581 45.5199 18.8148V41.8925L36.2546 32.8548C35.5156 32.1157 34.3789 32.1728 33.6397 32.8548L28.4107 38.1412L14.7687 24.4992C14.0867 23.8173 12.8362 23.8173 12.1538 24.4992L4.4233 32.1727V18.8149C4.4233 18.7011 4.53669 18.6444 4.65049 18.6444L4.65079 18.6443ZM45.3494 50.2482H4.65079C4.537 50.2482 4.4803 50.1344 4.4803 50.0777V37.4589L13.4613 28.4779L30.6843 45.7009C31.0253 46.0419 31.5368 46.2695 31.9916 46.2695C32.4464 46.2695 32.9578 46.099 33.2988 45.7009C34.0379 44.9619 34.0379 43.7684 33.2988 43.086L31.0254 40.8125L35.0042 36.8337L45.5767 47.0652V50.0778C45.5767 50.1916 45.4633 50.2483 45.3495 50.2483L45.3494 50.2482Z" fill="white"/>
<path d="M7.03804 11.1974H42.9051C43.9281 11.1974 44.7809 10.3449 44.7809 9.32158C44.7809 8.29863 43.9284 7.4458 42.9051 7.4458H7.03804C6.01509 7.4458 5.16226 8.29826 5.16226 9.32158C5.16226 10.3449 6.01512 11.1974 7.03804 11.1974Z" fill="white"/>
<path d="M11.5287 3.75155H38.4716C39.4946 3.75155 40.3474 2.89909 40.3474 1.87577C40.3474 0.852828 39.495 0 38.4716 0H11.5287C10.5053 0 9.65292 0.852463 9.65292 1.87577C9.65292 2.89872 10.5054 3.75155 11.5287 3.75155Z" fill="white"/>
</svg>
