<svg width="43" height="42" viewBox="0 0 43 42" fill="none" xmlns="http://www.w3.org/2000/svg">
<path d="M42.9963 5.95627C43.0531 4.39555 42.4569 2.87955 41.3449 1.756C40.2329 0.63282 38.7006 -0.00108756 37.1002 3.29892e-06L36.8912 3.28065e-06C35.2784 0.0706704 33.7676 0.78942 32.7168 1.98545L10.5404 25.6073L9.6534 25.6073C7.75639 25.6037 5.93541 26.3363 4.59197 27.6435C0.939488 31.207 0.261051 39.3016 0.156506 40.218L-3.8147e-06 42L1.82647 41.8473C2.76589 41.7454 11.0624 41.0835 14.7149 37.5198C16.0547 36.2091 16.8056 34.4328 16.8022 32.5817C16.803 32.2926 16.7855 32.0035 16.7498 31.7163L40.9612 10.0799C42.1951 9.03907 42.9317 7.54617 42.9962 5.95635L42.9963 5.95627ZM12.4712 35.3308C10.5927 37.1635 6.31415 38.1309 3.44418 38.5382C3.86166 35.7893 4.85312 31.6145 6.73159 29.731L6.73123 29.7306C7.48684 28.9782 8.52127 28.5542 9.6012 28.5542C10.6811 28.5542 11.7152 28.9782 12.4712 29.7306C13.2424 30.4679 13.677 31.4771 13.677 32.5307C13.677 33.584 13.2424 34.5933 12.4712 35.3308ZM14.7147 27.5925C14.3933 27.2903 14.0439 27.0176 13.6712 26.7779L17.8457 22.2978C18.4215 22.3873 18.9537 22.6522 19.366 23.0546C19.7784 23.4569 20.0499 23.9761 20.1416 24.5378L15.5497 28.6107C15.304 28.247 15.0245 27.9061 14.7147 27.5925ZM38.8739 7.78891L22.5938 22.298C22.0461 21.2749 21.19 20.4397 20.1414 19.9053L35.0126 3.97073C35.5189 3.43416 36.2261 3.12023 36.973 3.10035C37.7202 3.08081 38.4438 3.35709 38.9788 3.86633C39.5139 4.37556 39.8149 5.07405 39.8131 5.80351C39.8014 6.56487 39.4604 7.28615 38.874 7.78896L38.8739 7.78891Z" fill="white"/>
</svg>
