<svg width="36" height="36" viewBox="0 0 36 36" fill="none" xmlns="http://www.w3.org/2000/svg">
<path fill-rule="evenodd" clip-rule="evenodd" d="M18 36C8.0592 36 0 27.9408 0 18C0 8.0586 8.0592 0 18 0C27.9408 0 36 8.0586 36 18C36 27.9408 27.9408 36 18 36Z" fill="url(#paint0_linear_170_927)"/>
<path fill-rule="evenodd" clip-rule="evenodd" d="M22.8503 6H13.1497C9.20735 6 6 9.20735 6 13.1497V22.8503C6 26.7927 9.20735 30 13.1497 30H22.8503C26.7927 30 30 26.7927 30 22.8503V13.1497C30 9.20735 26.7926 6 22.8503 6ZM27.5856 22.8503C27.5856 25.4655 25.4655 27.5856 22.8503 27.5856H13.1497C10.5345 27.5856 8.4144 25.4655 8.4144 22.8503V13.1497C8.4144 10.5345 10.5345 8.4144 13.1497 8.4144H22.8503C25.4655 8.4144 27.5856 10.5345 27.5856 13.1497V22.8503ZM18 11.7928C14.5773 11.7928 11.7927 14.5773 11.7927 18C11.7927 21.4226 14.5773 24.2072 18 24.2072C21.4227 24.2072 24.2073 21.4227 24.2073 18C24.2073 14.5773 21.4227 11.7928 18 11.7928ZM18 21.7929C15.9052 21.7929 14.2071 20.0948 14.2071 18C14.2071 15.9053 15.9053 14.2072 18 14.2072C20.0947 14.2072 21.7929 15.9053 21.7929 18C21.7929 20.0947 20.0947 21.7929 18 21.7929ZM25.7067 11.8394C25.7067 12.6608 25.0407 13.3268 24.2193 13.3268C23.3978 13.3268 22.7319 12.6608 22.7319 11.8394C22.7319 11.0179 23.3978 10.352 24.2193 10.352C25.0407 10.352 25.7067 11.0179 25.7067 11.8394Z" fill="white"/>
<defs>
<linearGradient id="paint0_linear_170_927" x1="18" y1="35.8952" x2="18" y2="0.279618" gradientUnits="userSpaceOnUse">
<stop stop-color="#E09B3D"/>
<stop offset="0.3" stop-color="#C74C4D"/>
<stop offset="0.6" stop-color="#C21975"/>
<stop offset="1" stop-color="#7024C4"/>
</linearGradient>
</defs>
</svg>
