<?xml version="1.0" encoding="UTF-8"?>
<svg id="Ebene_1" data-name="Ebene 1" xmlns="http://www.w3.org/2000/svg" viewBox="0 0 293.14 132.02">
  <defs>
    <style>
      .cls-1 {
        fill: #fff;
      }

      .cls-2 {
        fill: #c8792d;
      }

      .cls-3 {
        fill: #0e2f48;
      }

      .cls-4 {
        fill: #77398d;
      }
    </style>
  </defs>
  <g>
    <g>
      <path class="cls-3" d="m127.5,62.44c0,2.05.23,4.07,1.03,6.27h-6.35c.8-2.2,1.03-4.22,1.06-6.27v-11.78l-6.12,18.05h-2.24l-6.15-18.28v12.01c0,2.05.23,4.07,1.03,6.27h-3.84c.8-2.2,1.03-4.22,1.03-6.27v-13.26c0-1.9-.19-3.72-1.03-5.17h7.37c-.27.38-.38,1.03-.38,1.79,0,1.18.27,2.62.68,3.91l3.99,12.42,3.95-12.42c.38-1.22.65-2.62.65-3.8,0-.8-.11-1.52-.42-1.9h6.76c-.91,1.44-1.03,3.23-1.03,5.17v13.26Z"/>
      <path class="cls-3" d="m144.68,59.17h-9.99c.34,3.61,1.82,5.89,5.89,5.89,1.71,0,2.81-.42,3.99-1.14-.38,2.39-2.43,5.28-6.53,5.28-4.75,0-8.06-3.95-8.06-9.84,0-5.51,2.74-10.14,8.17-10.14,4.56,0,6.54,3.31,6.54,7.18v2.77Zm-4.79-2.74c0-3.99-.99-5.55-2.47-5.55-1.71,0-2.81,1.98-2.81,6.31v.84h3.91c1.18,0,1.37-.15,1.37-1.6Z"/>
      <path class="cls-3" d="m172,68.71h-5.24c-.38-1.67-.49-4.29-.49-6.27v-7.1c0-2.13-.65-2.96-2.05-2.96-.8,0-1.79.34-2.77,1.52.04.23.04.46.04.72v7.75c0,2.05.27,4.18,1.03,6.35h-5.74v-13.37c0-2.13-.65-2.96-2.05-2.96-.76,0-1.75.34-2.7,1.48v9.31c0,2.13.04,3.53.87,5.55h-6.46c.8-2.01.87-3.42.87-5.55v-6.42c0-2.13-.04-3.69-.87-5.4,1.6-.68,3.23-1.41,4.75-2.17.42.91.8,2.43.84,3.57,1.25-2.39,3.23-3.5,5.32-3.5s3.61,1.25,4.03,3.76c1.25-2.58,3.31-3.76,5.43-3.76,2.62,0,4.18,1.79,4.18,5.36v7.75c0,2.05.23,4.18,1.03,6.35Z"/>
      <path class="cls-3" d="m172.95,59.25c0-6.19,3.31-10.07,8.17-10.07,4.52,0,7.83,3.91,7.83,9.95s-3.31,10.03-8.17,10.03c-4.56,0-7.83-3.95-7.83-9.92Zm10.94,1.48c0-4.98-1.03-9.84-3.31-9.84-1.86,0-2.58,2.55-2.58,6.76,0,4.98,1.03,9.8,3.31,9.8,1.82,0,2.58-2.43,2.58-6.73Z"/>
      <path class="cls-3" d="m202.02,68.71c-.3-.42-.57-1.29-.72-2.17-1.06,1.63-2.55,2.43-4.37,2.43-3.34,0-6.23-2.96-6.23-8.78,0-7.41,4.18-10.87,8.09-10.87.99,0,1.75.19,2.43.57v-.53c0-2.13-.11-4.06-.87-5.58,1.94-.53,3.72-1.22,5.55-2.09v21.47c0,2.05.11,3.31.91,5.55h-4.79Zm-.8-3.31v-10.07c-.04-3.12-1.14-4.37-2.51-4.37-1.98,0-3.12,2.05-3.12,7.26s1.52,7.56,4.07,7.56c.61,0,1.1-.11,1.56-.38Z"/>
      <path class="cls-3" d="m209.54,63.39v-6.46c0-1.94-.04-3.84-.87-5.58,1.94-.61,3.72-1.25,5.55-2.13v14.17c0,2.05.08,3.12.87,5.32h-6.42c.8-2.2.87-3.27.87-5.32Zm-.84-18.54c0-1.71,1.25-3.08,3.08-3.08s3.15,1.37,3.15,3.08-1.29,3.04-3.15,3.04-3.08-1.37-3.08-3.04Z"/>
      <path class="cls-3" d="m233.94,45.68l-.76,5.58c-.61-1.25-1.56-1.86-2.43-1.86-.72,0-1.37.34-1.79,1.33,1.6,1.14,2.58,2.93,2.58,5.09,0,3.99-3.23,7.1-7.6,7.1-.8,0-1.56-.11-2.28-.3-.87.65-1.22,1.25-1.22,1.75,0,.87,1.1.87,2.17.87h3.95c2.51,0,5.62.08,5.62,3.69,0,3.88-3.57,7.48-9.35,7.48-2.24,0-4.67-.46-6.99-1.9l2.47-4.18c2.58,2.62,5.28,3.27,7.48,3.27,2.58,0,3.65-1.03,3.65-2.24,0-1.44-1.18-1.82-3.34-1.82h-4.14c-3.12,0-5.05-.65-5.05-2.66,0-1.71,1.52-3.46,3.38-4.79-2.09-1.06-3.5-3.08-3.5-5.7,0-3.99,3.23-7.1,7.56-7.1,1.37,0,2.62.3,3.72.87,1.03-3.84,2.62-4.79,4.48-4.79.57,0,.99.11,1.37.3Zm-7.18,11.4c0-2.85-.76-6.19-2.93-6.19-1.37,0-2.2,1.41-2.2,4.22s.65,6.19,2.85,6.19c1.52,0,2.28-1.56,2.28-4.22Z"/>
      <path class="cls-3" d="m235.38,63.39v-6.46c0-1.94-.04-3.84-.87-5.58,1.94-.61,3.72-1.25,5.55-2.13v14.17c0,2.05.08,3.12.87,5.32h-6.42c.8-2.2.87-3.27.87-5.32Zm-.84-18.54c0-1.71,1.25-3.08,3.08-3.08s3.15,1.37,3.15,3.08-1.29,3.04-3.15,3.04-3.08-1.37-3.08-3.04Z"/>
    </g>
    <g>
      <path class="cls-2" d="m55.62,53.89h0s0,0,0,0c-4.09,0-7.41,3.32-7.41,7.41h0c0,4.09,3.32,7.41,7.41,7.41h14.82s0-14.82,0-14.82c0-4.09-3.32-7.41-7.41-7.41h0c-4.09,0-7.41,3.32-7.41,7.41Z"/>
      <path class="cls-4" d="m86.78,50.7h0c0-4.97-4.03-9.01-9.01-9.01h0c-4.97,0-9.01,4.03-9.01,9.01v18.01s18.01,0,18.01,0c4.97,0,9.01-4.03,9.01-9.01h0c0-4.97-4.03-9.01-9.01-9.01Z"/>
    </g>
  </g>
  <path class="cls-1" d="m84.45,63.78c0,1.61.18,3.2.81,4.93h-4.99c.63-1.73.81-3.31.84-4.93v-9.26l-4.81,14.18h-1.76l-4.84-14.36v9.44c0,1.61.18,3.2.81,4.93h-3.02c.63-1.73.81-3.31.81-4.93v-10.42c0-1.49-.15-2.93-.81-4.06h5.79c-.21.3-.3.81-.3,1.4,0,.93.21,2.06.54,3.08l3.14,9.77,3.11-9.77c.3-.96.51-2.06.51-2.99,0-.63-.09-1.19-.33-1.49h5.32c-.72,1.14-.81,2.54-.81,4.06v10.42Z"/>
  <g>
    <path class="cls-3" d="m98.65,90.12l.02-6.55h-.04l-1.71,6.55h-1.13l-1.67-6.55h-.04l.02,6.55h-1.31v-8.53h1.94l1.64,6.24h.05l1.6-6.24h2.03v8.53h-1.41Z"/>
    <path class="cls-3" d="m106.11,87.07c0,.48-.05.92-.16,1.32-.11.4-.27.75-.47,1.03-.21.29-.45.51-.74.67s-.62.24-.99.24-.7-.08-.99-.24-.54-.38-.74-.67c-.21-.28-.36-.63-.47-1.03-.11-.4-.16-.84-.16-1.32s.05-.94.16-1.34c.11-.41.26-.75.47-1.04.2-.29.45-.51.74-.67.29-.16.63-.24,1-.24s.7.08.99.24c.29.16.54.38.74.67.21.29.36.64.47,1.04.11.41.16.85.16,1.34Zm-1.36-.01c0-.3-.02-.57-.06-.83-.04-.25-.1-.47-.19-.66-.08-.19-.19-.34-.31-.45-.12-.11-.27-.16-.45-.16s-.33.05-.45.16c-.12.11-.23.26-.31.45-.08.19-.14.41-.18.66-.04.25-.06.53-.06.83s.02.56.06.82c.04.26.1.48.18.66s.18.33.31.44c.13.11.28.16.45.16s.33-.05.46-.16c.13-.11.23-.25.31-.44s.14-.41.18-.66c.04-.26.06-.53.06-.82Z"/>
    <path class="cls-3" d="m109.28,84.12c.25-.23.58-.34.98-.34.21,0,.4.03.56.1.16.06.3.15.41.26.11.11.21.24.28.38s.13.29.17.45h.02c.05-.14.12-.29.21-.43s.21-.27.34-.38c.13-.11.29-.2.46-.27s.38-.1.6-.1c.34,0,.61.07.81.21.2.14.36.33.48.56.11.23.19.5.23.8.04.3.06.61.06.92v3.85h-1.36v-3.85c0-.15,0-.31-.02-.46-.02-.16-.05-.3-.1-.43s-.13-.23-.23-.31c-.1-.08-.23-.11-.39-.11-.31,0-.55.15-.73.46-.18.3-.27.69-.27,1.16v3.55h-1.34v-3.85c0-.15,0-.31-.02-.46-.02-.16-.05-.3-.1-.43-.05-.13-.13-.23-.22-.31-.1-.08-.22-.11-.38-.11-.3,0-.54.15-.71.46-.17.3-.26.69-.26,1.14v3.56h-1.36v-6.14h1.35v.98h.02c.09-.33.26-.61.51-.84Z"/>
    <path class="cls-3" d="m117.46,87.4c0,.24.02.47.07.68s.12.4.21.55c.09.16.21.28.34.37.13.09.29.14.46.14.25,0,.45-.08.6-.24.15-.16.27-.34.35-.55l1,.58c-.18.43-.43.76-.75,1.02-.32.25-.74.38-1.25.38-.71,0-1.29-.28-1.72-.84-.43-.56-.65-1.37-.65-2.42,0-.49.06-.94.17-1.34.11-.41.27-.75.48-1.04.21-.29.46-.51.74-.67.28-.16.6-.24.96-.24.39,0,.73.08,1,.24s.5.38.67.66c.17.28.3.6.38.98s.12.79.12,1.23v.52h-3.19Zm1.89-.99c0-.46-.07-.83-.22-1.11-.14-.29-.37-.43-.67-.43-.18,0-.33.05-.45.16-.13.1-.22.24-.3.39-.08.16-.13.33-.17.51-.04.18-.06.34-.06.49h1.88Z"/>
    <path class="cls-3" d="m123.24,83.98v.98h.02c.11-.33.3-.61.56-.84s.58-.34.97-.34c.34,0,.61.07.81.21.21.14.36.33.48.56s.19.5.23.8c.04.3.06.61.06.92v3.85h-1.36v-3.85c0-.15,0-.31-.02-.46-.02-.16-.05-.3-.1-.43s-.13-.23-.23-.31c-.1-.08-.23-.11-.39-.11-.3,0-.55.15-.73.46-.18.3-.27.69-.27,1.16v3.55h-1.36v-6.14h1.34Z"/>
    <path class="cls-3" d="m129.34,85.03v3.15c0,.34.05.58.15.74.1.15.25.23.46.23.07,0,.15,0,.22-.02.08-.02.14-.04.2-.07l.02,1.06c-.1.05-.22.09-.38.12s-.32.05-.48.05c-.52,0-.9-.15-1.13-.46s-.34-.75-.34-1.33v-3.46h-.77v-1.05h.77v-1.57h1.28v1.57h1.07v1.05h-1.07Z"/>
    <path class="cls-3" d="m134,85.37c-.11-.15-.25-.28-.42-.37-.17-.1-.36-.15-.58-.15-.2,0-.37.07-.51.21-.14.14-.2.33-.2.56s.07.42.22.52c.14.11.37.22.69.33.18.06.35.14.52.24.17.09.33.21.47.35.14.14.25.32.34.52.08.2.13.45.13.73,0,.34-.05.63-.16.89-.11.25-.25.46-.44.63-.18.17-.4.29-.63.37-.24.08-.48.12-.74.12-.38,0-.74-.08-1.08-.23-.33-.15-.62-.36-.85-.61l.73-.87c.14.17.31.31.51.43.19.12.42.18.67.18.22,0,.4-.08.53-.23.13-.15.19-.35.19-.6,0-.29-.1-.5-.28-.63-.19-.13-.44-.25-.75-.36-.16-.06-.32-.13-.47-.21-.15-.08-.29-.19-.42-.32-.13-.14-.23-.3-.31-.5-.08-.2-.11-.44-.11-.72,0-.3.05-.56.16-.79.11-.23.25-.43.43-.6.18-.16.38-.29.61-.37.23-.08.47-.13.72-.13.37,0,.7.07,1,.2.3.13.55.3.76.51l-.72.88Z"/>
    <path class="cls-3" d="m139.57,85.03v3.15c0,.34.05.58.15.74.1.15.25.23.46.23.07,0,.15,0,.22-.02.08-.02.14-.04.2-.07l.02,1.06c-.1.05-.22.09-.38.12s-.32.05-.48.05c-.52,0-.9-.15-1.13-.46s-.34-.75-.34-1.33v-3.46h-.77v-1.05h.77v-1.57h1.28v1.57h1.07v1.05h-1.07Z"/>
    <path class="cls-3" d="m145.99,87.07c0,.48-.05.92-.16,1.32-.11.4-.27.75-.47,1.03-.21.29-.45.51-.74.67s-.62.24-.99.24-.7-.08-.99-.24-.54-.38-.74-.67c-.21-.28-.36-.63-.47-1.03-.11-.4-.16-.84-.16-1.32s.05-.94.16-1.34c.11-.41.26-.75.47-1.04.2-.29.45-.51.74-.67.29-.16.63-.24,1-.24s.7.08.99.24c.29.16.54.38.74.67.21.29.36.64.47,1.04.11.41.16.85.16,1.34Zm-1.36-.01c0-.3-.02-.57-.06-.83-.04-.25-.1-.47-.19-.66-.08-.19-.19-.34-.31-.45-.12-.11-.27-.16-.45-.16s-.33.05-.45.16c-.12.11-.23.26-.31.45-.08.19-.14.41-.18.66-.04.25-.06.53-.06.83s.02.56.06.82c.04.26.1.48.18.66s.18.33.31.44c.13.11.28.16.45.16s.33-.05.46-.16c.13-.11.23-.25.31-.44s.14-.41.18-.66c.04-.26.06-.53.06-.82Z"/>
    <path class="cls-3" d="m153.18,90.12l-1.32-3.64h-.81v3.64h-1.4v-8.53h2.43c.35,0,.68.05.98.14.3.09.55.24.76.44s.38.45.5.76c.12.31.18.67.18,1.1,0,.33-.04.62-.13.87-.08.25-.19.47-.32.64-.13.18-.27.32-.43.43-.16.11-.31.18-.46.22l1.53,3.93h-1.52Zm-.1-6.02c0-.26-.04-.47-.11-.64-.07-.17-.17-.3-.28-.4s-.25-.16-.39-.2c-.14-.04-.29-.06-.43-.06h-.82v2.63h.82c.35,0,.64-.11.87-.33.23-.22.34-.55.34-.99Z"/>
    <path class="cls-3" d="m156.68,87.4c0,.24.02.47.07.68s.12.4.21.55c.09.16.21.28.34.37.13.09.29.14.46.14.25,0,.45-.08.6-.24.15-.16.27-.34.35-.55l1,.58c-.18.43-.43.76-.75,1.02-.32.25-.74.38-1.25.38-.71,0-1.29-.28-1.72-.84-.43-.56-.65-1.37-.65-2.42,0-.49.06-.94.17-1.34.11-.41.27-.75.48-1.04.21-.29.46-.51.74-.67.28-.16.6-.24.96-.24.39,0,.73.08,1,.24s.5.38.67.66c.17.28.3.6.38.98s.12.79.12,1.23v.52h-3.19Zm1.89-.99c0-.46-.07-.83-.22-1.11-.14-.29-.37-.43-.67-.43-.18,0-.33.05-.45.16-.13.1-.22.24-.3.39-.08.16-.13.33-.17.51-.04.18-.06.34-.06.49h1.88Z"/>
    <path class="cls-3" d="m163.01,84.12c.25-.23.58-.34.98-.34.21,0,.4.03.56.1.16.06.3.15.41.26.11.11.21.24.28.38s.13.29.17.45h.02c.05-.14.12-.29.21-.43s.21-.27.34-.38c.13-.11.29-.2.46-.27s.38-.1.6-.1c.34,0,.61.07.81.21.2.14.36.33.48.56.11.23.19.5.23.8.04.3.06.61.06.92v3.85h-1.36v-3.85c0-.15,0-.31-.02-.46-.02-.16-.05-.3-.1-.43s-.13-.23-.23-.31c-.1-.08-.23-.11-.39-.11-.31,0-.55.15-.73.46-.18.3-.27.69-.27,1.16v3.55h-1.34v-3.85c0-.15,0-.31-.02-.46-.02-.16-.05-.3-.1-.43-.05-.13-.13-.23-.22-.31-.1-.08-.22-.11-.38-.11-.3,0-.54.15-.71.46-.17.3-.26.69-.26,1.14v3.56h-1.36v-6.14h1.35v.98h.02c.09-.33.26-.61.51-.84Z"/>
    <path class="cls-3" d="m171.19,87.4c0,.24.02.47.07.68s.12.4.21.55c.09.16.21.28.34.37.13.09.29.14.46.14.25,0,.45-.08.6-.24.15-.16.27-.34.35-.55l1,.58c-.18.43-.43.76-.75,1.02-.32.25-.74.38-1.25.38-.71,0-1.29-.28-1.72-.84-.43-.56-.65-1.37-.65-2.42,0-.49.06-.94.17-1.34.11-.41.27-.75.48-1.04.21-.29.46-.51.74-.67.28-.16.6-.24.96-.24.39,0,.73.08,1,.24s.5.38.67.66c.17.28.3.6.38.98s.12.79.12,1.23v.52h-3.19Zm1.89-.99c0-.46-.07-.83-.22-1.11-.14-.29-.37-.43-.67-.43-.18,0-.33.05-.45.16-.13.1-.22.24-.3.39-.08.16-.13.33-.17.51-.04.18-.06.34-.06.49h1.88Z"/>
    <path class="cls-3" d="m177.52,84.12c.25-.23.58-.34.98-.34.21,0,.4.03.56.1.16.06.3.15.41.26.11.11.21.24.28.38s.13.29.17.45h.02c.05-.14.12-.29.21-.43s.21-.27.34-.38c.13-.11.29-.2.46-.27s.38-.1.6-.1c.34,0,.61.07.81.21.2.14.36.33.48.56.11.23.19.5.23.8.04.3.06.61.06.92v3.85h-1.36v-3.85c0-.15,0-.31-.02-.46-.02-.16-.05-.3-.1-.43s-.13-.23-.23-.31c-.1-.08-.23-.11-.39-.11-.31,0-.55.15-.73.46-.18.3-.27.69-.27,1.16v3.55h-1.34v-3.85c0-.15,0-.31-.02-.46-.02-.16-.05-.3-.1-.43-.05-.13-.13-.23-.22-.31-.1-.08-.22-.11-.38-.11-.3,0-.54.15-.71.46-.17.3-.26.69-.26,1.14v3.56h-1.36v-6.14h1.35v.98h.02c.09-.33.26-.61.51-.84Z"/>
    <path class="cls-3" d="m184.74,81.02h1.36v3.73h.02c.09-.28.25-.51.48-.7s.52-.28.85-.28.6.08.85.24.46.38.62.67c.17.29.29.62.38,1.02.08.39.13.82.13,1.29s-.04.91-.13,1.32c-.09.41-.22.76-.38,1.06-.17.3-.38.54-.62.7s-.53.25-.84.25c-.4,0-.7-.1-.91-.31-.21-.21-.36-.47-.46-.77h-.02v.88h-1.32v-9.1Zm1.31,6.03c0,.29.02.56.07.81s.11.47.19.66c.08.19.19.34.32.44.13.11.28.16.44.16.18,0,.33-.05.45-.16.12-.11.23-.26.31-.44.08-.19.14-.41.18-.66s.06-.52.06-.81-.02-.56-.06-.82c-.04-.26-.1-.48-.18-.67-.08-.19-.18-.34-.31-.45-.13-.11-.27-.16-.45-.16-.17,0-.32.05-.44.16-.13.11-.24.26-.32.45-.08.19-.15.41-.19.67-.04.26-.07.53-.07.82Z"/>
    <path class="cls-3" d="m191.71,87.4c0,.24.02.47.07.68s.12.4.21.55c.09.16.21.28.34.37.13.09.29.14.46.14.25,0,.45-.08.6-.24.15-.16.27-.34.35-.55l1,.58c-.18.43-.43.76-.75,1.02-.32.25-.74.38-1.25.38-.71,0-1.29-.28-1.72-.84-.43-.56-.65-1.37-.65-2.42,0-.49.06-.94.17-1.34.11-.41.27-.75.48-1.04.21-.29.46-.51.74-.67.28-.16.6-.24.96-.24.39,0,.73.08,1,.24s.5.38.67.66c.17.28.3.6.38.98s.12.79.12,1.23v.52h-3.19Zm1.89-.99c0-.46-.07-.83-.22-1.11-.14-.29-.37-.43-.67-.43-.18,0-.33.05-.45.16-.13.1-.22.24-.3.39-.08.16-.13.33-.17.51-.04.18-.06.34-.06.49h1.88Z"/>
    <path class="cls-3" d="m198.01,84.13c.22-.23.49-.35.8-.35h.1s.06,0,.1.02l-.07,1.4c-.09-.02-.18-.04-.29-.04-.18,0-.33.05-.47.16-.14.11-.25.25-.35.43s-.17.38-.22.6c-.05.23-.07.45-.07.69v3.08h-1.39v-6.14h1.34v1.18h.02c.1-.46.27-.8.49-1.03Z"/>
  </g>
</svg>