<svg width="27" height="41" viewBox="0 0 27 41" fill="none" xmlns="http://www.w3.org/2000/svg">
<path d="M0.777597 30.396C0.252895 29.1814 -0.132729 20.7738 0.783918 19.8613C1.36552 19.2823 3.47064 20.0186 4.02695 21.057C4.97521 22.8065 4.25453 24.2665 4.97521 26.167C5.6706 27.992 6.84643 27.5767 7.42171 25.5943C7.42171 25.5943 7.56079 23.1589 7.37113 22.3785C7.05505 21.0633 4.98153 12.2843 4.04592 8.20002C3.21777 4.59403 5.6706 3.20324 6.44184 4.09687C8.09181 6.00999 12.3653 21.2269 12.3653 21.2269L11.613 16.9098C11.613 15.3616 15.6589 16.1231 16.1457 17.1992L17.3089 21.2269C17.3089 21.2269 16.8474 18.5775 16.8474 17.3943C16.8474 16.7336 19.9387 17.4447 20.7289 18.5334C21.2726 19.276 22.2461 21.2206 22.2461 21.2206C22.2461 21.2206 21.4812 18.7977 21.5886 18.6341C21.8226 18.2691 24.3386 19.5403 25.1478 20.736C27.7839 24.6063 27.0316 28.9423 26.3552 33.6181C25.8684 36.9724 24.0604 39.3009 23.0679 40.3581C22.6886 40.7609 22.1576 40.9937 21.6013 40.9937H11.2716C10.7532 40.9937 10.2918 40.7546 9.88717 40.4399C5.95507 37.4003 2.69307 34.8012 0.783918 30.3834L0.777597 30.396Z" fill="white"/>
<path d="M1.24538 5.78972C1.24538 3.27874 3.29361 1.23975 5.81597 1.23975C8.33833 1.23975 10.3866 3.27874 10.3866 5.78972C10.3866 6.96654 9.9314 8.04267 9.18544 8.8482C9.33084 9.26984 9.48256 9.70407 9.63428 10.1446C10.8544 9.08104 11.6319 7.52663 11.6319 5.78972C11.6319 2.59908 9.02107 0 5.81597 0C2.61086 0 0 2.59908 0 5.78972C0 8.40138 1.75111 10.6166 4.14072 11.334C4.0206 10.8243 3.90681 10.3334 3.79934 9.86769C2.28846 9.1251 1.24538 7.57698 1.24538 5.78972V5.78972Z" fill="white"/>
</svg>
