<svg width="24" height="24" viewBox="0 0 24 24" fill="none" xmlns="http://www.w3.org/2000/svg">
<mask id="path-1-outside-1_147_256" maskUnits="userSpaceOnUse" x="0" y="0" width="24" height="24" fill="black">
<rect fill="white" width="24" height="24"/>
<path fill-rule="evenodd" clip-rule="evenodd" d="M12 2.53489C6.77258 2.53489 2.53488 6.77258 2.53488 12C2.53488 17.2274 6.77258 21.4651 12 21.4651C17.2275 21.4651 21.4651 17.2274 21.4651 12C21.4651 6.77258 17.2275 2.53489 12 2.53489ZM1 12C1 5.92488 5.92488 1 12 1C18.0752 1 23 5.92488 23 12C23 18.0752 18.0752 23 12 23C5.92488 23 1 18.0752 1 12ZM11.999 11.2324C12.4229 11.2324 12.7665 11.576 12.7665 11.9999V16.0929C12.7665 16.5167 12.4229 16.8604 11.999 16.8604C11.5752 16.8604 11.2316 16.5167 11.2316 16.0929V11.9999C11.2316 11.576 11.5752 11.2324 11.999 11.2324ZM11.999 7.13867C11.5752 7.13867 11.2316 7.48226 11.2316 7.90612C11.2316 8.32996 11.5752 8.67356 11.999 8.67356H12.0093C12.4331 8.67356 12.7767 8.32996 12.7767 7.90612C12.7767 7.48226 12.4331 7.13867 12.0093 7.13867H11.999Z"/>
</mask>
<path fill-rule="evenodd" clip-rule="evenodd" d="M12 2.53489C6.77258 2.53489 2.53488 6.77258 2.53488 12C2.53488 17.2274 6.77258 21.4651 12 21.4651C17.2275 21.4651 21.4651 17.2274 21.4651 12C21.4651 6.77258 17.2275 2.53489 12 2.53489ZM1 12C1 5.92488 5.92488 1 12 1C18.0752 1 23 5.92488 23 12C23 18.0752 18.0752 23 12 23C5.92488 23 1 18.0752 1 12ZM11.999 11.2324C12.4229 11.2324 12.7665 11.576 12.7665 11.9999V16.0929C12.7665 16.5167 12.4229 16.8604 11.999 16.8604C11.5752 16.8604 11.2316 16.5167 11.2316 16.0929V11.9999C11.2316 11.576 11.5752 11.2324 11.999 11.2324ZM11.999 7.13867C11.5752 7.13867 11.2316 7.48226 11.2316 7.90612C11.2316 8.32996 11.5752 8.67356 11.999 8.67356H12.0093C12.4331 8.67356 12.7767 8.32996 12.7767 7.90612C12.7767 7.48226 12.4331 7.13867 12.0093 7.13867H11.999Z" fill="white"/>
<path d="M2.83488 12C2.83488 6.93826 6.93827 2.83489 12 2.83489V2.23489C6.6069 2.23489 2.23488 6.60689 2.23488 12H2.83488ZM12 21.1651C6.93827 21.1651 2.83488 17.0618 2.83488 12H2.23488C2.23488 17.3931 6.6069 21.7651 12 21.7651V21.1651ZM21.1651 12C21.1651 17.0618 17.0618 21.1651 12 21.1651V21.7651C17.3932 21.7651 21.7651 17.3931 21.7651 12H21.1651ZM12 2.83489C17.0618 2.83489 21.1651 6.93826 21.1651 12H21.7651C21.7651 6.60689 17.3932 2.23489 12 2.23489V2.83489ZM12 0.7C5.75919 0.7 0.7 5.75919 0.7 12H1.3C1.3 6.09056 6.09056 1.3 12 1.3V0.7ZM23.3 12C23.3 5.75919 18.2409 0.7 12 0.7V1.3C17.9095 1.3 22.7 6.09056 22.7 12H23.3ZM12 23.3C18.2409 23.3 23.3 18.2408 23.3 12H22.7C22.7 17.9095 17.9095 22.7 12 22.7V23.3ZM0.7 12C0.7 18.2409 5.7592 23.3 12 23.3V22.7C6.09056 22.7 1.3 17.9095 1.3 12H0.7ZM13.0665 11.9999C13.0665 11.4103 12.5886 10.9324 11.999 10.9324V11.5324C12.2572 11.5324 12.4665 11.7417 12.4665 11.9999H13.0665ZM13.0665 16.0929V11.9999H12.4665V16.0929H13.0665ZM11.999 17.1604C12.5886 17.1604 13.0665 16.6824 13.0665 16.0929H12.4665C12.4665 16.3511 12.2572 16.5604 11.999 16.5604V17.1604ZM10.9316 16.0929C10.9316 16.6824 11.4095 17.1604 11.999 17.1604V16.5604C11.7409 16.5604 11.5316 16.3511 11.5316 16.0929H10.9316ZM10.9316 11.9999V16.0929H11.5316V11.9999H10.9316ZM11.999 10.9324C11.4095 10.9324 10.9316 11.4103 10.9316 11.9999H11.5316C11.5316 11.7417 11.7409 11.5324 11.999 11.5324V10.9324ZM11.5316 7.90612C11.5316 7.64795 11.7409 7.43867 11.999 7.43867V6.83867C11.4095 6.83867 10.9316 7.31657 10.9316 7.90612H11.5316ZM11.999 8.37356C11.7409 8.37356 11.5316 8.16427 11.5316 7.90612H10.9316C10.9316 8.49564 11.4095 8.97356 11.999 8.97356V8.37356ZM12.0093 8.37356H11.999V8.97356H12.0093V8.37356ZM12.4767 7.90612C12.4767 8.16427 12.2674 8.37356 12.0093 8.37356V8.97356C12.5988 8.97356 13.0767 8.49564 13.0767 7.90612H12.4767ZM12.0093 7.43867C12.2674 7.43867 12.4767 7.64795 12.4767 7.90612H13.0767C13.0767 7.31657 12.5988 6.83867 12.0093 6.83867V7.43867ZM11.999 7.43867H12.0093V6.83867H11.999V7.43867Z" fill="white" mask="url(#path-1-outside-1_147_256)"/>
</svg>
