<svg width="24" height="24" viewBox="0 0 24 24" fill="none" xmlns="http://www.w3.org/2000/svg">
<mask id="path-1-outside-1_147_295" maskUnits="userSpaceOnUse" x="0" y="2" width="19" height="8" fill="black">
<rect fill="white" y="2" width="19" height="8"/>
<path fill-rule="evenodd" clip-rule="evenodd" d="M1.39535 5.83334C1.39535 4.48688 2.48688 3.39535 3.83334 3.39535C5.1798 3.39535 6.27132 4.48688 6.27132 5.83334C6.27132 7.1798 5.1798 8.27132 3.83334 8.27132C2.48688 8.27132 1.39535 7.1798 1.39535 5.83334ZM3.83334 3C2.26853 3 1 4.26853 1 5.83334C1 7.39815 2.26853 8.66667 3.83334 8.66667C5.39815 8.66667 6.66667 7.39815 6.66667 5.83334C6.66667 4.26853 5.39815 3 3.83334 3ZM7.28484 5.26667C6.94344 5.26667 6.66667 5.52037 6.66667 5.83333C6.66667 6.14629 6.94344 6.4 7.28484 6.4L17.3818 6.4C17.7232 6.4 18 6.14629 18 5.83333C18 5.52037 17.7232 5.26667 17.3818 5.26667L7.28484 5.26667Z"/>
</mask>
<path fill-rule="evenodd" clip-rule="evenodd" d="M1.39535 5.83334C1.39535 4.48688 2.48688 3.39535 3.83334 3.39535C5.1798 3.39535 6.27132 4.48688 6.27132 5.83334C6.27132 7.1798 5.1798 8.27132 3.83334 8.27132C2.48688 8.27132 1.39535 7.1798 1.39535 5.83334ZM3.83334 3C2.26853 3 1 4.26853 1 5.83334C1 7.39815 2.26853 8.66667 3.83334 8.66667C5.39815 8.66667 6.66667 7.39815 6.66667 5.83334C6.66667 4.26853 5.39815 3 3.83334 3ZM7.28484 5.26667C6.94344 5.26667 6.66667 5.52037 6.66667 5.83333C6.66667 6.14629 6.94344 6.4 7.28484 6.4L17.3818 6.4C17.7232 6.4 18 6.14629 18 5.83333C18 5.52037 17.7232 5.26667 17.3818 5.26667L7.28484 5.26667Z" fill="white"/>
<path d="M7.28484 5.26667V4.76667V5.26667ZM7.28484 6.4V6.9V6.4ZM17.3818 6.4V5.9V6.4ZM17.3818 5.26667V5.76667V5.26667ZM3.83334 2.89535C2.21073 2.89535 0.895348 4.21073 0.895348 5.83334H1.89535C1.89535 4.76302 2.76302 3.89535 3.83334 3.89535V2.89535ZM6.77132 5.83334C6.77132 4.21074 5.45594 2.89535 3.83334 2.89535V3.89535C4.90365 3.89535 5.77132 4.76302 5.77132 5.83334H6.77132ZM3.83334 8.77132C5.45594 8.77132 6.77132 7.45594 6.77132 5.83334H5.77132C5.77132 6.90365 4.90366 7.77132 3.83334 7.77132V8.77132ZM0.895348 5.83334C0.895348 7.45594 2.21074 8.77132 3.83334 8.77132V7.77132C2.76302 7.77132 1.89535 6.90365 1.89535 5.83334H0.895348ZM1.5 5.83334C1.5 4.54467 2.54467 3.5 3.83334 3.5V2.5C1.99239 2.5 0.5 3.99239 0.5 5.83334H1.5ZM3.83334 8.16667C2.54467 8.16667 1.5 7.122 1.5 5.83334H0.5C0.5 7.67429 1.99239 9.16667 3.83334 9.16667V8.16667ZM6.16667 5.83334C6.16667 7.12201 5.12201 8.16667 3.83334 8.16667V9.16667C5.67429 9.16667 7.16667 7.67429 7.16667 5.83334H6.16667ZM3.83334 3.5C5.122 3.5 6.16667 4.54467 6.16667 5.83334H7.16667C7.16667 3.99239 5.67429 2.5 3.83334 2.5V3.5ZM7.16667 5.83333C7.16667 5.82977 7.16724 5.81804 7.18559 5.80122C7.20467 5.78373 7.23845 5.76667 7.28484 5.76667V4.76667C6.70913 4.76667 6.16667 5.20417 6.16667 5.83333H7.16667ZM7.28484 5.9C7.23845 5.9 7.20467 5.88294 7.18559 5.86545C7.16724 5.84863 7.16667 5.8369 7.16667 5.83333H6.16667C6.16667 6.46249 6.70913 6.9 7.28484 6.9V5.9ZM17.3818 5.9L7.28484 5.9V6.9L17.3818 6.9V5.9ZM17.5 5.83333C17.5 5.83687 17.4994 5.8486 17.4811 5.86544C17.462 5.88294 17.4282 5.9 17.3818 5.9V6.9C17.9575 6.9 18.5 6.46252 18.5 5.83333H17.5ZM17.3818 5.76667C17.4282 5.76667 17.462 5.78372 17.4811 5.80122C17.4994 5.81806 17.5 5.82979 17.5 5.83333H18.5C18.5 5.20415 17.9575 4.76667 17.3818 4.76667V5.76667ZM7.28484 5.76667L17.3818 5.76667V4.76667L7.28484 4.76667V5.76667Z" fill="white" mask="url(#path-1-outside-1_147_295)"/>
<mask id="path-3-outside-2_147_295" maskUnits="userSpaceOnUse" x="4" y="15.0002" width="19" height="8" fill="black">
<rect fill="white" x="4" y="15.0002" width="19" height="8"/>
<path fill-rule="evenodd" clip-rule="evenodd" d="M21.6047 19.1669C21.6047 20.5134 20.5131 21.6049 19.1667 21.6049C17.8202 21.6049 16.7287 20.5134 16.7287 19.1669C16.7287 17.8204 17.8202 16.7289 19.1667 16.7289C20.5131 16.7289 21.6047 17.8204 21.6047 19.1669ZM19.1667 22.0002C20.7315 22.0002 22 20.7317 22 19.1669C22 17.6021 20.7315 16.3336 19.1667 16.3336C17.6019 16.3336 16.3333 17.6021 16.3333 19.1669C16.3333 20.7317 17.6019 22.0002 19.1667 22.0002ZM15.7152 19.7336C16.0566 19.7336 16.3333 19.4799 16.3333 19.1669C16.3333 18.854 16.0566 18.6002 15.7152 18.6002L5.61818 18.6002C5.27682 18.6002 5 18.854 5 19.1669C5 19.4799 5.27682 19.7336 5.61818 19.7336L15.7152 19.7336Z"/>
</mask>
<path fill-rule="evenodd" clip-rule="evenodd" d="M21.6047 19.1669C21.6047 20.5134 20.5131 21.6049 19.1667 21.6049C17.8202 21.6049 16.7287 20.5134 16.7287 19.1669C16.7287 17.8204 17.8202 16.7289 19.1667 16.7289C20.5131 16.7289 21.6047 17.8204 21.6047 19.1669ZM19.1667 22.0002C20.7315 22.0002 22 20.7317 22 19.1669C22 17.6021 20.7315 16.3336 19.1667 16.3336C17.6019 16.3336 16.3333 17.6021 16.3333 19.1669C16.3333 20.7317 17.6019 22.0002 19.1667 22.0002ZM15.7152 19.7336C16.0566 19.7336 16.3333 19.4799 16.3333 19.1669C16.3333 18.854 16.0566 18.6002 15.7152 18.6002L5.61818 18.6002C5.27682 18.6002 5 18.854 5 19.1669C5 19.4799 5.27682 19.7336 5.61818 19.7336L15.7152 19.7336Z" fill="white"/>
<path d="M15.7152 19.7336L15.7152 20.2336L15.7152 19.7336ZM15.7152 18.6002L15.7152 18.1002L15.7152 18.6002ZM5.61818 18.6002L5.61818 19.1002L5.61818 18.6002ZM5.61818 19.7336L5.61818 19.2336L5.61818 19.7336ZM19.1667 22.1049C20.7893 22.1049 22.1047 20.7895 22.1047 19.1669L21.1047 19.1669C21.1047 20.2372 20.237 21.1049 19.1667 21.1049L19.1667 22.1049ZM16.2287 19.1669C16.2287 20.7895 17.5441 22.1049 19.1667 22.1049L19.1667 21.1049C18.0963 21.1049 17.2287 20.2372 17.2287 19.1669L16.2287 19.1669ZM19.1667 16.2289C17.5441 16.2289 16.2287 17.5443 16.2287 19.1669L17.2287 19.1669C17.2287 18.0966 18.0963 17.2289 19.1667 17.2289L19.1667 16.2289ZM22.1047 19.1669C22.1047 17.5443 20.7893 16.2289 19.1667 16.2289L19.1667 17.2289C20.237 17.2289 21.1047 18.0966 21.1047 19.1669L22.1047 19.1669ZM21.5 19.1669C21.5 20.4556 20.4553 21.5002 19.1667 21.5002L19.1667 22.5002C21.0076 22.5002 22.5 21.0079 22.5 19.1669L21.5 19.1669ZM19.1667 16.8336C20.4553 16.8336 21.5 17.8782 21.5 19.1669L22.5 19.1669C22.5 17.326 21.0076 15.8336 19.1667 15.8336L19.1667 16.8336ZM16.8333 19.1669C16.8333 17.8782 17.878 16.8336 19.1667 16.8336L19.1667 15.8336C17.3257 15.8336 15.8333 17.326 15.8333 19.1669L16.8333 19.1669ZM19.1667 21.5002C17.878 21.5002 16.8333 20.4556 16.8333 19.1669L15.8333 19.1669C15.8333 21.0079 17.3257 22.5002 19.1667 22.5002L19.1667 21.5002ZM15.8333 19.1669C15.8333 19.1705 15.8328 19.1822 15.8144 19.199C15.7953 19.2165 15.7615 19.2336 15.7152 19.2336L15.7152 20.2336C16.2909 20.2336 16.8333 19.7961 16.8333 19.1669L15.8333 19.1669ZM15.7152 19.1002C15.7615 19.1002 15.7953 19.1173 15.8144 19.1348C15.8328 19.1516 15.8333 19.1633 15.8333 19.1669L16.8333 19.1669C16.8333 18.5378 16.2909 18.1002 15.7152 18.1002L15.7152 19.1002ZM5.61818 19.1002L15.7152 19.1002L15.7152 18.1002L5.61818 18.1002L5.61818 19.1002ZM5.5 19.1669C5.5 19.1634 5.50056 19.1516 5.51893 19.1348C5.53803 19.1173 5.57182 19.1002 5.61818 19.1002L5.61818 18.1002C5.04254 18.1002 4.5 18.5377 4.5 19.1669L5.5 19.1669ZM5.61818 19.2336C5.57182 19.2336 5.53803 19.2165 5.51893 19.199C5.50056 19.1822 5.5 19.1704 5.5 19.1669L4.5 19.1669C4.5 19.7961 5.04254 20.2336 5.61818 20.2336L5.61818 19.2336ZM15.7152 19.2336L5.61818 19.2336L5.61818 20.2336L15.7152 20.2336L15.7152 19.2336Z" fill="white" mask="url(#path-3-outside-2_147_295)"/>
<mask id="path-5-outside-3_147_295" maskUnits="userSpaceOnUse" x="2" y="8.66675" width="19" height="8" fill="black">
<rect fill="white" x="2" y="8.66675" width="19" height="8"/>
<path fill-rule="evenodd" clip-rule="evenodd" d="M11.5 10.0621C10.1535 10.0621 9.06201 11.1536 9.06201 12.5001C9.06201 13.8465 10.1535 14.9381 11.5 14.9381C12.8465 14.9381 13.938 13.8465 13.938 12.5001C13.938 11.1536 12.8465 10.0621 11.5 10.0621ZM8.66667 12.5001C8.66667 10.9353 9.93519 9.66675 11.5 9.66675C13.0648 9.66675 14.3333 10.9353 14.3333 12.5001C14.3333 14.0649 13.0648 15.3334 11.5 15.3334C9.93519 15.3334 8.66667 14.0649 8.66667 12.5001ZM14.3333 12.5001C14.3333 12.1871 14.6101 11.9334 14.9515 11.9334L19.3818 11.9334C19.7232 11.9334 20 12.1871 20 12.5001C20 12.813 19.7232 13.0667 19.3818 13.0667L14.9515 13.0667C14.6101 13.0667 14.3333 12.813 14.3333 12.5001ZM3.61818 11.9334C3.27677 11.9334 3 12.1871 3 12.5001C3 12.813 3.27677 13.0667 3.61818 13.0667L8.04849 13.0667C8.38985 13.0667 8.66667 12.813 8.66667 12.5001C8.66667 12.1871 8.38985 11.9334 8.04849 11.9334L3.61818 11.9334Z"/>
</mask>
<path fill-rule="evenodd" clip-rule="evenodd" d="M11.5 10.0621C10.1535 10.0621 9.06201 11.1536 9.06201 12.5001C9.06201 13.8465 10.1535 14.9381 11.5 14.9381C12.8465 14.9381 13.938 13.8465 13.938 12.5001C13.938 11.1536 12.8465 10.0621 11.5 10.0621ZM8.66667 12.5001C8.66667 10.9353 9.93519 9.66675 11.5 9.66675C13.0648 9.66675 14.3333 10.9353 14.3333 12.5001C14.3333 14.0649 13.0648 15.3334 11.5 15.3334C9.93519 15.3334 8.66667 14.0649 8.66667 12.5001ZM14.3333 12.5001C14.3333 12.1871 14.6101 11.9334 14.9515 11.9334L19.3818 11.9334C19.7232 11.9334 20 12.1871 20 12.5001C20 12.813 19.7232 13.0667 19.3818 13.0667L14.9515 13.0667C14.6101 13.0667 14.3333 12.813 14.3333 12.5001ZM3.61818 11.9334C3.27677 11.9334 3 12.1871 3 12.5001C3 12.813 3.27677 13.0667 3.61818 13.0667L8.04849 13.0667C8.38985 13.0667 8.66667 12.813 8.66667 12.5001C8.66667 12.1871 8.38985 11.9334 8.04849 11.9334L3.61818 11.9334Z" fill="white"/>
<path d="M14.9515 11.9334V12.4334V11.9334ZM19.3818 11.9334V11.4334V11.9334ZM19.3818 13.0667V12.5667V13.0667ZM14.9515 13.0667V13.5667V13.0667ZM3.61818 11.9334V12.4334V11.9334ZM3.61818 13.0667V13.5667V13.0667ZM8.04849 13.0667V12.5667V13.0667ZM8.04849 11.9334V11.4334V11.9334ZM9.56201 12.5001C9.56201 11.4298 10.4297 10.5621 11.5 10.5621V9.5621C9.8774 9.5621 8.56201 10.8775 8.56201 12.5001H9.56201ZM11.5 14.4381C10.4297 14.4381 9.56201 13.5704 9.56201 12.5001H8.56201C8.56201 14.1227 9.8774 15.4381 11.5 15.4381V14.4381ZM13.438 12.5001C13.438 13.5704 12.5703 14.4381 11.5 14.4381V15.4381C13.1226 15.4381 14.438 14.1227 14.438 12.5001H13.438ZM11.5 10.5621C12.5703 10.5621 13.438 11.4298 13.438 12.5001H14.438C14.438 10.8775 13.1226 9.5621 11.5 9.5621V10.5621ZM11.5 9.16675C9.65905 9.16675 8.16667 10.6591 8.16667 12.5001H9.16667C9.16667 11.2114 10.2113 10.1667 11.5 10.1667V9.16675ZM14.8333 12.5001C14.8333 10.6591 13.341 9.16675 11.5 9.16675V10.1667C12.7887 10.1667 13.8333 11.2114 13.8333 12.5001H14.8333ZM11.5 15.8334C13.341 15.8334 14.8333 14.341 14.8333 12.5001H13.8333C13.8333 13.7888 12.7887 14.8334 11.5 14.8334V15.8334ZM8.16667 12.5001C8.16667 14.341 9.65905 15.8334 11.5 15.8334V14.8334C10.2113 14.8334 9.16667 13.7888 9.16667 12.5001H8.16667ZM14.9515 11.4334C14.3758 11.4334 13.8333 11.8709 13.8333 12.5001H14.8333C14.8333 12.4965 14.8339 12.4848 14.8523 12.468C14.8713 12.4505 14.9051 12.4334 14.9515 12.4334V11.4334ZM19.3818 11.4334L14.9515 11.4334V12.4334L19.3818 12.4334V11.4334ZM20.5 12.5001C20.5 11.8709 19.9575 11.4334 19.3818 11.4334V12.4334C19.4282 12.4334 19.462 12.4505 19.4811 12.468C19.4994 12.4848 19.5 12.4965 19.5 12.5001H20.5ZM19.3818 13.5667C19.9575 13.5667 20.5 13.1293 20.5 12.5001H19.5C19.5 12.5036 19.4994 12.5154 19.4811 12.5322C19.462 12.5497 19.4282 12.5667 19.3818 12.5667V13.5667ZM14.9515 13.5667L19.3818 13.5667V12.5667L14.9515 12.5667V13.5667ZM13.8333 12.5001C13.8333 13.1292 14.3758 13.5667 14.9515 13.5667V12.5667C14.9051 12.5667 14.8713 12.5497 14.8523 12.5322C14.8339 12.5154 14.8333 12.5036 14.8333 12.5001H13.8333ZM3.5 12.5001C3.5 12.4965 3.50057 12.4848 3.51892 12.468C3.538 12.4505 3.57178 12.4334 3.61818 12.4334V11.4334C3.04246 11.4334 2.5 11.8709 2.5 12.5001H3.5ZM3.61818 12.5667C3.57178 12.5667 3.538 12.5497 3.51892 12.5322C3.50057 12.5154 3.5 12.5036 3.5 12.5001H2.5C2.5 13.1292 3.04247 13.5667 3.61818 13.5667V12.5667ZM8.04849 12.5667L3.61818 12.5667V13.5667L8.04849 13.5667V12.5667ZM8.16667 12.5001C8.16667 12.5036 8.1661 12.5154 8.14773 12.5322C8.12864 12.5497 8.09485 12.5667 8.04849 12.5667V13.5667C8.62413 13.5667 9.16667 13.1293 9.16667 12.5001H8.16667ZM8.04849 12.4334C8.09485 12.4334 8.12864 12.4505 8.14773 12.468C8.1661 12.4848 8.16667 12.4965 8.16667 12.5001H9.16667C9.16667 11.8709 8.62413 11.4334 8.04849 11.4334V12.4334ZM3.61818 12.4334L8.04849 12.4334V11.4334L3.61818 11.4334V12.4334Z" fill="white" mask="url(#path-5-outside-3_147_295)"/>
</svg>
