<svg width="24" height="20" viewBox="0 0 24 20" fill="none" xmlns="http://www.w3.org/2000/svg">
<path d="M13.3691 15.5549C13.3691 15.8439 13.5352 16.1072 13.796 16.2317C14.0569 16.3562 14.3661 16.3198 14.5908 16.138L22.7844 9.50915C22.9605 9.36674 23.0627 9.15242 23.0627 8.926C23.0627 8.69958 22.9604 8.48529 22.7843 8.34291L14.5935 1.71884C14.3688 1.5371 14.0596 1.50066 13.7988 1.62517C13.538 1.74968 13.3719 2.01298 13.3719 2.302V5.08603C13.3719 5.14178 13.3497 5.19528 13.3104 5.23456C13.2711 5.27385 13.2176 5.29604 13.1619 5.29604L13.1598 5.29604C9.08083 5.30767 6.27612 6.93579 4.40766 9.33198C2.56692 11.6926 1.67271 14.7468 1.25786 17.5895C1.2084 17.9284 1.39481 18.2578 1.71081 18.3898C2.02681 18.5219 2.39213 18.4231 2.59852 18.1498C3.83787 16.5086 5.42094 15.1581 7.2366 14.1923C9.05224 13.2268 11.0571 12.6697 13.1108 12.5598C13.1205 12.5593 13.1301 12.5586 13.1397 12.5577C13.1987 12.5523 13.2573 12.572 13.3006 12.6118L13.3006 12.6118C13.3447 12.6521 13.3693 12.7087 13.3691 12.7679V12.7709V15.5549Z" stroke="white" stroke-width="1.5" stroke-linejoin="round"/>
</svg>
