<svg width="16" height="16" viewBox="0 0 16 16" fill="none" xmlns="http://www.w3.org/2000/svg">
<g clip-path="url(#clip0_38_827)">
<path d="M6.66669 8.66672C6.95299 9.04948 7.31826 9.36618 7.73772 9.59535C8.15718 9.82452 8.62103 9.9608 9.09779 9.99495C9.57455 10.0291 10.0531 9.9603 10.5009 9.79325C10.9488 9.62619 11.3554 9.36477 11.6934 9.02672L13.6934 7.02672C14.3005 6.39805 14.6365 5.55604 14.6289 4.68205C14.6213 3.80806 14.2708 2.97202 13.6527 2.354C13.0347 1.73597 12.1987 1.38541 11.3247 1.37781C10.4507 1.37022 9.60869 1.7062 8.98002 2.31339L7.83335 3.45339" stroke="white" stroke-width="2" stroke-linecap="round" stroke-linejoin="round"/>
<path d="M9.33334 7.33332C9.04704 6.95057 8.68177 6.63387 8.26231 6.40469C7.84285 6.17552 7.37901 6.03924 6.90224 6.0051C6.42548 5.97095 5.94695 6.03974 5.49911 6.2068C5.05127 6.37386 4.6446 6.63527 4.30668 6.97332L2.30668 8.97332C1.69948 9.60199 1.3635 10.444 1.3711 11.318C1.37869 12.192 1.72926 13.028 2.34728 13.646C2.96531 14.2641 3.80135 14.6146 4.67534 14.6222C5.54933 14.6298 6.39134 14.2938 7.02001 13.6867L8.16001 12.5467" stroke="white" stroke-width="2" stroke-linecap="round" stroke-linejoin="round"/>
</g>
<defs>
<clipPath id="clip0_38_827">
<rect width="16" height="16" fill="white"/>
</clipPath>
</defs>
</svg>
