<svg width="16" height="16" viewBox="0 0 16 16" fill="none" xmlns="http://www.w3.org/2000/svg">
<path d="M11 0.5L3 15.5H5L13 0.5H11ZM3.8 10.8C2.8 10.1 1.9 9.1 1.4 8C2.1 6.5 3.4 5.3 4.8 4.6C3.8 5.9 3.8 7.7 4.7 9.1L8 2.5C4.3 2.5 1.4 4.7 0 8C0.7 9.7 1.8 11.1 3.2 12L3.8 10.8ZM12.4 3.7L11.8 4.9C13 5.6 14 6.7 14.6 8C13.5 10.4 11 12.1 8.2 12.2L7.5 13.5C7.7 13.5 7.8 13.5 8 13.5C11.7 13.5 14.6 11.3 16 8C15.2 6.2 14 4.7 12.4 3.7ZM11.6 5.3L8.9 10.7C9.6 10.5 10.2 10.2 10.7 9.7C11.9 8.5 12.2 6.8 11.6 5.3Z" fill="white"/>
</svg>
