<svg width="24" height="24" viewBox="0 0 24 24" fill="none" xmlns="http://www.w3.org/2000/svg">
<path d="M5.606 10.798L6.236 11.918L4.318 12.632L6.236 13.346L5.592 14.494L3.996 13.234L4.29 15.264H3.002L3.268 13.234L1.672 14.522L1 13.332L2.904 12.618L1 11.932L1.644 10.784L3.282 12.044L3.002 10H4.304L3.996 12.044L5.606 10.798Z" fill="white"/>
<path d="M13.6607 10.798L14.2907 11.918L12.3727 12.632L14.2907 13.346L13.6467 14.494L12.0507 13.234L12.3447 15.264H11.0567L11.3227 13.234L9.72669 14.522L9.05469 13.332L10.9587 12.618L9.05469 11.932L9.69869 10.784L11.3367 12.044L11.0567 10H12.3587L12.0507 12.044L13.6607 10.798Z" fill="white"/>
<path d="M21.7154 10.798L22.3454 11.918L20.4274 12.632L22.3454 13.346L21.7014 14.494L20.1054 13.234L20.3994 15.264H19.1114L19.3774 13.234L17.7814 14.522L17.1094 13.332L19.0134 12.618L17.1094 11.932L17.7534 10.784L19.3914 12.044L19.1114 10H20.4134L20.1054 12.044L21.7154 10.798Z" fill="white"/>
</svg>
