<svg width="23" height="19" viewBox="0 0 23 19" fill="none" xmlns="http://www.w3.org/2000/svg">
<path d="M1.77778 13.4924H4.17511L9.28444 17.025C9.41847 17.1173 9.57407 17.1703 9.73477 17.1784C9.89547 17.1865 10.0553 17.1494 10.1973 17.0711C10.3392 16.9923 10.4578 16.8751 10.5405 16.7319C10.6231 16.5887 10.6667 16.4249 10.6667 16.258V1.50829C10.6666 1.34154 10.6229 1.17794 10.5402 1.03491C10.4576 0.891875 10.3391 0.77477 10.1973 0.696064C10.0556 0.617358 9.89591 0.579999 9.7353 0.587967C9.5747 0.595935 9.41919 0.648931 9.28533 0.74131L4.17511 4.27386H1.77778C0.797333 4.27386 0 5.10077 0 6.11757V11.6487C0 12.6655 0.797333 13.4924 1.77778 13.4924ZM1.77778 6.11757H4.44444C4.47378 6.11757 4.49867 6.10282 4.52711 6.10006C4.64504 6.08744 4.75946 6.05112 4.864 5.99312C4.88711 5.98022 4.91467 5.97745 4.93689 5.9627L8.88889 3.23032V14.536L4.93778 11.8036C4.91556 11.787 4.888 11.7851 4.86489 11.7732C4.76001 11.7137 4.64441 11.6773 4.52533 11.6662C4.49689 11.6635 4.47289 11.6487 4.44444 11.6487H1.77778V6.11757Z" fill="white"/>
<path d="M19.0049 16.814V1.76972" stroke="white" stroke-width="1.32743"/>
<line y1="-0.663717" x2="7.9646" y2="-0.663717" transform="matrix(0 -1 -1 0 15.0226 13.2742)" stroke="white" stroke-width="1.32743"/>
<path d="M22.1023 18.584V-8.63075e-05" stroke="white" stroke-width="1.32743"/>
</svg>
