<svg width="66" height="66" viewBox="0 0 66 66" fill="none" xmlns="http://www.w3.org/2000/svg">
<circle cx="33" cy="33" r="32.5" stroke="white"/>
<path d="M33.8067 49.5C34.2655 49.4665 34.7242 49.4516 35.183 49.3958C36.4365 49.2432 37.5454 48.6103 38.7339 48.2493C39.525 48.011 39.9585 47.5718 40.0199 46.7342C40.0343 46.5667 40.1752 46.3694 40.0343 46.2354C39.8898 46.0976 39.7128 46.2503 39.5575 46.2987C38.6725 46.589 37.7839 46.7714 36.8447 46.5816C35.8368 46.3806 35.3997 45.8929 35.3456 44.8357C35.313 44.1992 35.3889 43.5738 35.5117 42.9521C35.9091 40.9531 36.5051 39.01 37.047 37.052C37.5418 35.2577 38.0403 33.4709 37.9139 31.5724C37.8344 30.3552 37.3179 29.3836 36.3642 28.6801C35.0999 27.7457 33.6478 27.6191 32.1595 27.7494C30.7146 27.876 29.4033 28.5051 28.0343 28.922C27.142 29.1938 26.7736 29.7335 26.6652 30.6232C26.6219 31.0029 26.6941 31.0736 27.0228 30.9694C27.3985 30.8503 27.7706 30.6939 28.1535 30.6455C30.5882 30.3366 31.6141 30.8577 31.242 33.6347C31.1011 34.6807 30.8049 35.6895 30.552 36.7095C29.8946 39.3934 28.8543 41.9806 28.7062 44.791C28.6303 46.2763 29.0602 47.5196 30.2342 48.4391C31.2926 49.2692 32.5171 49.4889 33.8067 49.4963V49.5Z" fill="white"/>
<path d="M36.6857 24.0567C39.4563 24.0567 41.3203 21.4509 40.3558 18.9383C39.5538 16.8462 36.9349 15.8821 34.8795 16.9207C33.077 17.8327 32.2787 19.813 32.9795 21.6408C33.5321 23.0814 35.0276 24.0567 36.6821 24.053L36.6857 24.0567Z" fill="white"/>
</svg>
