<svg width="66" height="66" viewBox="0 0 66 66" fill="none" xmlns="http://www.w3.org/2000/svg">
<g clip-path="url(#clip0_34_944)">
<path d="M45.1516 42.4412C44.3721 41.9161 43.3161 41.4606 42.0119 41.0878C41.2633 40.8738 40.4421 40.69 39.5646 40.5378C39.0977 41.1666 38.6321 41.7625 38.1813 42.3165C42.185 42.8679 44.9463 44.0362 44.9463 45.3896C44.9463 47.2721 39.5968 48.7988 32.9981 48.7988C26.3994 48.7988 21.0498 47.2721 21.0498 45.3896C21.0498 44.0362 23.8125 42.8679 27.8149 42.3165C27.3641 41.7612 26.8999 41.1652 26.4316 40.5378C25.5554 40.69 24.7329 40.8738 23.9856 41.0878C22.6814 41.4606 21.6255 41.9148 20.8459 42.4412C19.3499 43.4507 19.0359 44.602 19.0359 45.3896C19.0359 46.1773 19.3499 47.3299 20.8459 48.338C21.6255 48.8631 22.6814 49.3187 23.9856 49.6915C26.4209 50.3859 29.6209 50.7692 32.9981 50.7692C36.3753 50.7692 39.5753 50.3872 42.0106 49.6915C43.3148 49.3187 44.3707 48.8645 45.1503 48.338C46.6463 47.3285 46.9603 46.1773 46.9603 45.3896C46.9603 44.602 46.6463 43.4494 45.1503 42.4412H45.1516Z" fill="white"/>
<path d="M33.0008 15.2308C26.873 15.2308 21.9045 20.0905 21.9045 26.0858C21.9045 35.2133 32.9994 45.7835 32.9994 45.7835C32.9994 45.7835 44.0943 35.212 44.0943 26.0858C44.0957 20.0905 39.1272 15.2308 33.0008 15.2308ZM33.0008 33.2061C28.9152 33.2061 25.6037 29.9663 25.6037 25.969C25.6037 21.9717 28.9152 18.7318 33.0008 18.7318C37.0864 18.7318 40.3978 21.9717 40.3978 25.969C40.3978 29.9663 37.0864 33.2061 33.0008 33.2061Z" fill="white"/>
</g>
<circle cx="33" cy="33" r="32.5" stroke="white"/>
<defs>
<clipPath id="clip0_34_944">
<rect width="27.9231" height="35.5385" fill="white" transform="translate(19.0386 15.2308)"/>
</clipPath>
</defs>
</svg>
