<svg width="82" height="82" viewBox="0 0 82 82" fill="none" xmlns="http://www.w3.org/2000/svg">
<g filter="url(#filter0_d_43_1069)">
<path d="M73.4989 41.1221C73.6114 23.2453 59.0691 8.59736 41.1046 8.50047C23.2233 8.40505 8.58116 22.9574 8.50032 40.9146L73.4989 41.1221ZM73.4989 41.1221C73.3863 59.0932 58.7307 73.6262 40.8588 73.499M73.4989 41.1221L40.8588 73.499M40.8588 73.499C22.9113 73.3718 8.42098 58.7746 8.50032 40.9146L40.8588 73.499ZM53.3844 42.8914L53.3845 42.8914C54.2112 42.414 54.8089 41.7769 54.8006 40.9894C54.7924 40.207 54.1878 39.571 53.3557 39.0893L53.3555 39.0892C52.023 38.3184 50.6887 37.5497 49.3551 36.7814C48.8493 36.4901 48.3436 36.1988 47.8381 35.9074C46.7799 35.2971 45.7216 34.687 44.6633 34.077C41.8743 32.4694 39.0855 30.8619 36.2995 29.2496L36.2993 29.2495C35.9612 29.054 35.5685 28.8699 35.1427 28.8336C34.6901 28.7951 34.2462 28.927 33.8335 29.2753L33.8333 29.2754C33.1807 29.8266 33.1709 30.6027 33.1709 31.1329V31.1522V31.1715V31.1908V31.2101V31.2294V31.2487V31.268V31.2874V31.3067V31.326V31.3453V31.3646V31.3839V31.4032V31.4225V31.4418V31.4611V31.4804V31.4997V31.519V31.5383V31.5576V31.5769V31.5962V31.6155V31.6348V31.6541V31.6734V31.6927V31.712V31.7313V31.7507V31.77V31.7893V31.8086V31.8279V31.8472V31.8665V31.8858V31.9051V31.9244V31.9437V31.963V31.9823V32.0016V32.0209V32.0402V32.0595V32.0788V32.0981V32.1174V32.1367V32.156V32.1753V32.1946V32.2139V32.2333V32.2526V32.2719V32.2912V32.3105V32.3298V32.3491V32.3684V32.3877V32.407V32.4263V32.4456V32.4649V32.4842V32.5035V32.5228V32.5421V32.5614V32.5807V32.6V32.6193V32.6386V32.6579V32.6772V32.6965V32.7159V32.7352V32.7545V32.7738V32.7931V32.8124V32.8317V32.851V32.8703V32.8896V32.9089V32.9282V32.9475V32.9668V32.9861V33.0054V33.0247V33.044V33.0633V33.0826V33.1019V33.1212V33.1405V33.1598V33.1791V33.1984V33.2178V33.2371V33.2564V33.2757V33.295V33.3143V33.3336V33.3529V33.3722V33.3915V33.4108V33.4301V33.4494V33.4687V33.488V33.5073V33.5266V33.5459V33.5652V33.5845V33.6038V33.6231V33.6424V33.6617V33.681V33.7003V33.7196V33.7389V33.7583V33.7776V33.7969V33.8162V33.8355V33.8548V33.8741V33.8934V33.9127V33.932V33.9513V33.9706V33.9899V34.0092V34.0285V34.0478V34.0671V34.0864V34.1057V34.125V34.1443V34.1636V34.1829V34.2022V34.2215V34.2408V34.2601V34.2794V34.2987V34.318V34.3374V34.3567V34.376V34.3953V34.4146V34.4339V34.4532V34.4725V34.4918V34.5111V34.5304V34.5497V34.569V34.5883V34.6076V34.6269V34.6462V34.6655V34.6848V34.7041V34.7234V34.7427V34.762V34.7813V34.8006V34.8199V34.8392V34.8585V34.8778V34.8971V34.9164V34.9357V34.955V34.9744V34.9937V35.013V35.0323V35.0516V35.0709V35.0902V35.1095V35.1288V35.1481V35.1674V35.1867V35.206V35.2253V35.2446V35.2639V35.2832V35.3025V35.3218V35.3411V35.3604V35.3797V35.399V35.4183V35.4376V35.4569V35.4762V35.4955V35.5148V35.5341V35.5534V35.5727V35.592V35.6113V35.6306V35.6499V35.6692V35.6885V35.7078V35.7271V35.7465V35.7658V35.7851V35.8044V35.8237V35.843V35.8623V35.8816V35.9009V35.9202V35.9395V35.9588V35.9781V35.9974V36.0167V36.036V36.0553V36.0746V36.0939V36.1132V36.1325V36.1518V36.1711V36.1904V36.2097V36.229V36.2483V36.2676V36.2869V36.3062V36.3255V36.3448V36.3641V36.3834V36.4027V36.422V36.4413V36.4606V36.4799V36.4992V36.5185V36.5378V36.5571V36.5764V36.5957V36.615V36.6343V36.6536V36.6729V36.6922V36.7115V36.7308V36.7501V36.7694V36.7887V36.8081V36.8274V36.8467V36.866V36.8853V36.9046V36.9239V36.9432V36.9625V36.9818V37.0011V37.0204V37.0397V37.059V37.0783V37.0976V37.1169V37.1362V37.1555V37.1748V37.1941V37.2134V37.2327V37.252V37.2713V37.2906V37.3099V37.3292V37.3485V37.3678V37.3871V37.4064V37.4257V37.445V37.4643V37.4836V37.5029V37.5222V37.5415V37.5608V37.5801V37.5994V37.6187V37.638V37.6573V37.6766V37.6959V37.7152V37.7345V37.7538V37.7731V37.7924V37.8117V37.831V37.8503V37.8696V37.8889V37.9082V37.9275V37.9468V37.9661V37.9854V38.0047V38.024V38.0433V38.0626V38.0819V38.1012V38.1205V38.1398V38.1591V38.1784V38.1977V38.217V38.2363V38.2556V38.2749V38.2942V38.3135V38.3328V38.3521V38.3714V38.3907V38.41V38.4293V38.4486V38.4679V38.4872V38.5065V38.5258V38.5451V38.5644V38.5837V38.603V38.6223V38.6416V38.6609V38.6802V38.6995V38.7188V38.7381V38.7574V38.7767V38.796V38.8153V38.8346V38.8539V38.8732V38.8925V38.9118V38.9311V38.9504V38.9697V38.989V39.0083V39.0276V39.0469V39.0661V39.0854V39.1047V39.124V39.1433V39.1626V39.1819V39.2012V39.2205V39.2398V39.2591V39.2784V39.2977V39.317V39.3363V39.3556V39.3749V39.3942V39.4135V39.4328V39.4521V39.4714V39.4907V39.51V39.5293V39.5486V39.5679V39.5872V39.6065V39.6258V39.6451V39.6644V39.6837V39.703V39.7223V39.7416V39.7609V39.7802V39.7995V39.8188V39.8381V39.8574V39.8767V39.896V39.9153V39.9346V39.9539V39.9732V39.9924V40.0117V40.031V40.0503V40.0696V40.0889V40.1082V40.1275V40.1468V40.1661V40.1854V40.2047V40.224V40.2433V40.2626V40.2819V40.3012V40.3205V40.3398V40.3591V40.3784V40.3977V40.417V40.4363V40.4556V40.4749V40.4942V40.5135V40.5328V40.5521V40.5714V40.5906V40.6099V40.6292V40.6485V40.6678V40.6871V40.7064V40.7257V40.745V40.7643V40.7836V40.8029V40.8222V40.8415V40.8608V40.8801V40.8994V40.9187V40.938V40.9573V40.9766V40.9959V41.0152V41.2219L33.1724 41.2233C33.1723 42.0953 33.1719 42.9674 33.1714 43.8396C33.1702 46.1931 33.169 48.5472 33.1753 50.9002C33.1777 51.7928 33.4492 52.5701 34.0986 52.9472C34.7493 53.325 35.5566 53.1722 36.3267 52.7282C42.0135 49.4513 47.699 46.1728 53.3844 42.8914Z" fill="white" stroke="white"/>
</g>
<defs>
<filter id="filter0_d_43_1069" x="0" y="0" width="81.9995" height="81.9998" filterUnits="userSpaceOnUse" color-interpolation-filters="sRGB">
<feFlood flood-opacity="0" result="BackgroundImageFix"/>
<feColorMatrix in="SourceAlpha" type="matrix" values="0 0 0 0 0 0 0 0 0 0 0 0 0 0 0 0 0 0 127 0" result="hardAlpha"/>
<feOffset/>
<feGaussianBlur stdDeviation="4"/>
<feComposite in2="hardAlpha" operator="out"/>
<feColorMatrix type="matrix" values="0 0 0 0 0 0 0 0 0 0 0 0 0 0 0 0 0 0 0.25 0"/>
<feBlend mode="normal" in2="BackgroundImageFix" result="effect1_dropShadow_43_1069"/>
<feBlend mode="normal" in="SourceGraphic" in2="effect1_dropShadow_43_1069" result="shape"/>
</filter>
</defs>
</svg>
