<svg width="66" height="66" viewBox="0 0 66 66" fill="none" xmlns="http://www.w3.org/2000/svg">
<circle cx="33" cy="33" r="32.5" stroke="white"/>
<path d="M27.9203 13.7443C28.6666 13.7764 29.3236 14.0541 29.8668 14.6047C30.9312 15.686 32.0017 16.7612 33.071 17.8388C39.3827 24.2072 45.6945 30.5756 52.0062 36.944C53.4621 38.4129 53.4597 39.9313 51.9977 41.4076C48.4375 45.001 44.8772 48.5932 41.317 52.1841C39.8782 53.6346 38.3612 53.6333 36.9261 52.1866C29.6111 44.806 22.2961 37.4254 14.9812 30.0448C13.5461 28.5956 13.5485 27.0723 14.991 25.6169C18.583 21.9914 22.1799 18.3709 25.7658 14.738C26.3653 14.1307 27.048 13.7603 27.9228 13.7443H27.9203ZM27.8383 15.2787C27.4456 15.2515 27.1312 15.5033 26.8302 15.807C23.2284 19.4461 19.6241 23.0802 16.0199 26.7168C15.2087 27.5352 15.2124 28.1413 16.026 28.9634C18.7347 31.6964 21.4422 34.4282 24.1509 37.1612C28.7804 41.8323 33.4087 46.5021 38.0382 51.1731C38.8028 51.9446 39.4305 51.9409 40.2012 51.167C40.7628 50.6016 41.3231 50.035 41.8847 49.4684C44.9384 46.3873 47.9884 43.3037 51.0495 40.2288C51.4496 39.8263 51.6588 39.3881 51.5217 38.8215C51.4386 38.4746 51.178 38.2487 50.9418 38.0093C43.6367 30.6385 36.3327 23.2678 29.0275 15.8983C28.9088 15.7786 28.7877 15.6613 28.6617 15.5502C28.4452 15.3614 28.187 15.2799 27.8396 15.2799L27.8383 15.2787Z" fill="white" stroke="white" stroke-width="0.3"/>
<path d="M24.923 51.3632C23.5907 50.8509 22.3159 50.2349 21.1389 49.4301C16.4519 46.2231 13.7603 41.7718 13.0091 36.1169C12.9467 35.6429 13.2098 35.2664 13.6343 35.1923C14.0466 35.1195 14.4185 35.3935 14.4846 35.891C14.684 37.3908 15.0058 38.8585 15.5771 40.2596C17.4013 44.7381 20.5357 47.9044 24.9707 49.756C25.1053 49.8128 25.2387 49.8992 25.4479 49.856C25.1041 49.2054 24.7689 48.5746 24.4361 47.9414C24.3578 47.792 24.2734 47.6439 24.211 47.4884C24.0482 47.0835 24.1902 46.6971 24.5584 46.5107C24.9059 46.3354 25.3133 46.4218 25.5127 46.7884C26.2027 48.055 26.883 49.3276 27.5314 50.6151C27.7846 51.1175 27.5877 51.6953 27.091 51.9705C25.8883 52.6359 24.6734 53.279 23.4549 53.911C23.0585 54.116 22.618 53.9481 22.4419 53.5802C22.2645 53.2087 22.4015 52.7865 22.8016 52.5631C23.3741 52.2433 23.9602 51.9446 24.5364 51.6311C24.6673 51.5595 24.8251 51.5261 24.9242 51.3607L24.923 51.3632Z" fill="white" stroke="white" stroke-width="0.3"/>
<path d="M42.012 15.6194C43.9463 16.3464 45.6554 17.2871 47.1835 18.5375C51.0863 21.731 53.3423 25.8564 53.9895 30.8805C54.0531 31.373 53.7766 31.7718 53.3374 31.8298C52.9312 31.8841 52.5764 31.6002 52.5104 31.0953C52.2865 29.377 51.8766 27.7117 51.1646 26.1305C49.2695 21.9297 46.2011 18.9572 41.9606 17.2216C41.8762 17.1871 41.7905 17.155 41.7037 17.1254C41.678 17.1167 41.6474 17.1217 41.5422 17.1155C41.8456 17.6969 42.1307 18.2437 42.4169 18.7906C42.5234 18.9943 42.6396 19.1942 42.7399 19.4016C42.9614 19.8596 42.8586 20.2682 42.4781 20.483C42.0829 20.7064 41.6682 20.5669 41.4125 20.0941C40.873 19.0943 40.3457 18.0882 39.8147 17.0834C39.6997 16.8661 39.5749 16.6526 39.4782 16.4279C39.2409 15.8786 39.395 15.3206 39.9162 15.0318C41.1189 14.3652 42.3338 13.7221 43.5535 13.0876C43.934 12.8901 44.3512 13.0419 44.5396 13.39C44.7366 13.7517 44.6204 14.1986 44.2289 14.4195C43.5266 14.817 42.8085 15.1886 42.012 15.6169V15.6194Z" fill="white" stroke="white" stroke-width="0.3"/>
<path d="M41.2656 43.4247C41.2632 42.2631 42.1636 41.3459 43.31 41.3385C44.4698 41.3323 45.4156 42.2804 45.4021 43.437C45.3886 44.5714 44.4417 45.517 43.321 45.5145C42.1918 45.5121 41.2681 44.5714 41.2656 43.4247ZM43.8948 43.4037C43.8495 43.0901 43.6905 42.8704 43.3455 42.8494C43.0286 42.8297 42.7607 43.0988 42.7607 43.4197C42.7607 43.7382 43.0384 44.0184 43.3504 43.9876C43.6832 43.9555 43.863 43.7518 43.8936 43.4049L43.8948 43.4037Z" fill="white" stroke="white" stroke-width="0.3"/>
<path d="M21.3037 24.8158C21.0064 24.7763 20.774 24.6319 20.648 24.3331C20.5097 24.0048 20.6113 23.7283 20.8413 23.4937C21.612 22.7074 22.3889 21.9273 23.1634 21.1459C23.3138 20.994 23.457 20.8336 23.6185 20.6941C23.9586 20.4015 24.3513 20.4065 24.6474 20.6928C24.9435 20.978 24.9924 21.4088 24.6878 21.726C23.7457 22.7074 22.7792 23.6653 21.8176 24.6269C21.6854 24.759 21.5056 24.8146 21.3025 24.817L21.3037 24.8158Z" fill="white" stroke="white" stroke-width="0.3"/>
</svg>
