<svg width="66" height="66" viewBox="0 0 66 66" fill="none" xmlns="http://www.w3.org/2000/svg">
<circle cx="33" cy="33" r="32.5" stroke="white"/>
<path d="M29.6693 21.9262L25.5347 17.2309C25.5347 17.2308 25.5346 17.2307 25.5345 17.2307C25.2755 16.9342 24.8297 16.9132 24.5373 17.1632L24.5372 17.1632L24.5365 17.1638C24.2444 17.4169 24.2128 17.8618 24.4711 18.154C24.4711 18.154 24.4712 18.1541 24.4712 18.1541L28.6074 22.851L28.7201 22.752L28.6076 22.8511L28.6076 22.8511C28.8631 23.1421 29.3074 23.1752 29.6039 22.9176C29.8984 22.6623 29.9251 22.2175 29.6695 21.9264L29.6693 21.9262Z" fill="white" stroke="white" stroke-width="0.3"/>
<path d="M36.5158 19.4827L36.5158 19.4824L35.2085 13.2496L35.0585 13.2507L35.0585 13.2509C35.0585 13.251 35.0585 13.2511 35.0585 13.2511L35.1035 19.4911H35.2535L35.1035 19.4922L35.1035 19.4917C35.1038 19.8824 35.4254 20.1947 35.8127 20.1908L35.8736 20.1902L35.8775 20.1863C36.2387 20.1535 36.5177 19.8485 36.5158 19.4827Z" fill="white" stroke="white" stroke-width="0.3"/>
<path d="M50.2627 36.3646C50.5484 36.5666 50.6465 36.9506 50.4774 37.264C50.2953 37.6092 49.8704 37.7357 49.5255 37.5594L49.5242 37.5588L49.5242 37.5588L43.9655 34.6536L43.9654 34.6536L44.0349 34.5207C43.7607 34.3775 43.6584 34.0449 43.8025 33.7755L50.2627 36.3646ZM50.2627 36.3646V36.3558L50.1821 36.3137L44.6221 33.4102C44.622 33.4102 44.622 33.4102 44.6219 33.4101C44.2767 33.2289 43.8497 33.3608 43.6698 33.7055L50.2627 36.3646Z" fill="white" stroke="white" stroke-width="0.3"/>
<path d="M45.1617 26.5366C45.1615 26.5366 45.1614 26.5366 45.1612 26.5366C44.7712 26.5799 44.4959 26.9324 44.5411 27.3175C44.5866 27.7043 44.9379 27.9772 45.324 27.9324L51.5614 27.2088L51.562 27.2087C51.9484 27.1622 52.2298 26.8174 52.1827 26.4265C52.1388 26.0408 51.7869 25.7666 51.398 25.8131C51.3979 25.8131 51.3978 25.8131 51.3977 25.8131L45.1617 26.5366Z" fill="white" stroke="white" stroke-width="0.3"/>
<path d="M46.1063 17.2587L46.2242 17.3514L46.2241 17.3515C46.2241 17.3515 46.2241 17.3516 46.2241 17.3516L42.5495 22.0277H42.5516L42.3602 22.2706C42.1189 22.5767 41.6787 22.6315 41.3703 22.3953L41.3694 22.3946C41.0608 22.1544 41.007 21.7133 41.2476 21.4076C41.2476 21.4076 41.2476 21.4076 41.2476 21.4075L45.1155 16.4878C45.1156 16.4877 45.1157 16.4876 45.1158 16.4874C45.3546 16.18 45.7975 16.1262 46.1055 16.366L46.0133 16.4843C46.255 16.6706 46.2968 17.017 46.1063 17.2587ZM46.1063 17.2587L42.3587 22.0277L46.1063 17.2587Z" fill="white" stroke="white" stroke-width="0.3"/>
<path d="M27.9689 26.527C27.2121 26.626 26.5122 26.8826 25.898 27.2558L20.0379 26.7794L20.0379 26.7794L20.0355 26.7792C19.6508 26.7541 19.3071 27.0361 19.2767 27.4259C19.2416 27.8129 19.5351 28.1508 19.9216 28.1838L19.9223 28.1839L24.466 28.5506C24.0151 29.1439 23.6898 29.8346 23.5409 30.5893C23.1575 30.4796 22.7637 30.4247 22.3651 30.4247C19.9273 30.4247 17.9425 32.3906 17.9314 34.8114C17.3492 34.9798 16.6612 35.2457 16.1065 35.7548C15.5094 36.3028 15.0791 37.1209 15.0807 38.362M27.9689 26.527L43.6364 28.9535C43.636 31.2927 42.6132 33.3946 40.9935 34.8538C42.0394 35.4881 42.7363 36.5613 42.7981 37.7956L42.7981 37.7958C42.8497 38.8632 42.4468 39.9485 41.6918 40.7784L41.6917 40.7785C40.9853 41.5539 40.0519 42.0107 39.0613 42.059C38.6822 42.0777 37.997 42.0853 37.2041 42.0853C36.152 42.0853 34.9013 42.073 33.9141 42.0607C33.4204 42.0545 32.9924 42.0484 32.6878 42.0437L32.3307 42.0382L32.2351 42.0366L32.2104 42.0362L32.2042 42.0361L32.2031 42.0361L32.2026 42.036L32.2022 42.036L32.2021 42.036L31.9581 42.0356C28.5485 42.0287 26.8979 42.0254 26.1002 41.9416V42.0145H25.9502C25.9498 42.0145 25.9424 42.0144 25.9283 42.0142C25.5553 42.0095 20.5253 41.9461 19.282 42.0097L19.2777 42.0099L19.2777 42.0098L19.0748 42.0145L19.0714 42.0145V42.0145C16.884 42.0145 15.0808 40.3897 15.0807 38.362M27.9689 26.527C29.0045 23.3131 32.0383 20.9793 35.6114 20.9793C40.0355 20.9793 43.6356 24.555 43.6364 28.9519L27.9689 26.527ZM15.0807 38.362C15.0807 38.362 15.0807 38.362 15.0807 38.3619H15.2307L15.0807 38.3621C15.0807 38.3621 15.0807 38.3621 15.0807 38.362ZM25.9154 40.5807L25.8386 40.5783L25.8385 40.5798L25.5444 40.5763C25.2789 40.5733 24.904 40.5692 24.4662 40.5652C23.5907 40.5571 22.4634 40.549 21.4573 40.549C20.4961 40.549 19.6414 40.5567 19.2116 40.5784L19.0698 40.5814C17.6474 40.5806 16.524 39.5666 16.5225 38.3602L16.5225 38.3601C16.521 37.6064 16.7183 37.1384 17.088 36.8063C17.4683 36.4648 18.0498 36.2486 18.8624 36.0489L18.8726 36.0464L18.8823 36.0425L19.2944 35.8777L19.382 35.8427L19.3884 35.7485L19.4162 35.3344L19.417 35.3229L19.416 35.3113L19.3974 35.0973L19.3975 35.0973L19.397 35.0928C19.3934 35.0625 19.3897 35.0349 19.3862 35.0088C19.3775 34.9443 19.3701 34.8898 19.3701 34.8301C19.3701 33.1925 20.7119 31.8563 22.3636 31.8563C22.8583 31.8563 23.3479 31.9874 23.817 32.247L24.6844 32.7288L24.9121 32.8553L24.9072 32.5949L24.8886 31.6083C24.8886 31.6082 24.8886 31.6081 24.8886 31.608M25.9154 40.5807L24.8886 31.608M25.9154 40.5807L25.9375 40.581L25.9588 40.5813L25.9642 40.5814L25.9656 40.5814L25.9659 40.5814H25.966L26.1114 40.5833L26.1114 40.5846L25.9154 40.5807ZM24.8886 31.608C24.8681 30.4043 25.4556 29.3391 26.3808 28.6623C26.5604 28.6254 26.7209 28.5256 26.8248 28.3707C27.1917 28.1742 27.5961 28.0326 28.0286 27.9607C28.1788 27.9366 28.325 27.9176 28.4754 27.9118L28.6785 27.9072C28.8346 27.9073 28.9876 27.919 29.1428 27.937M24.8886 31.608L29.1428 27.937M32.578 31.6739L32.5792 31.6548C32.5907 31.4754 32.5948 31.4099 32.5904 31.3429L32.578 31.6739ZM32.578 31.6739L32.5346 32.9105L32.578 31.6739ZM29.1428 27.937C30.9438 28.1508 32.3515 29.5752 32.4405 31.3504L32.4407 31.353C32.4445 31.4099 32.441 31.4651 32.4283 31.6644L32.4282 31.6644L32.4281 31.6687L32.3769 33.1267L32.3634 33.511L32.6336 33.2373L33.6621 32.1952C33.6622 32.1951 33.6622 32.1951 33.6623 32.195C34.2307 31.6215 34.987 31.3051 35.7958 31.3051C37.446 31.3051 38.7893 32.6399 38.7893 34.2789C38.7893 34.4779 38.7687 34.6714 38.7317 34.8597L38.7314 34.8609L38.7287 34.8743L38.6141 35.4424L38.5836 35.5935L38.7354 35.6199L39.309 35.7198C39.3092 35.7198 39.3093 35.7198 39.3095 35.7199C39.4545 35.7463 39.5927 35.7815 39.7259 35.8265C40.6665 36.1479 41.3089 36.9415 41.3551 37.8644L41.358 37.9224L41.3603 37.9247C41.3761 38.5831 41.1058 39.2888 40.624 39.8174C40.1723 40.3131 39.5918 40.5976 38.9907 40.6277C38.9907 40.6277 38.9907 40.6277 38.9906 40.6277L38.9982 40.7775M29.1428 27.937L32.217 40.7529M38.9982 40.7775C37.6942 40.8424 32.6801 40.7605 32.2469 40.7534C32.2276 40.7531 32.2174 40.7529 32.217 40.7529M38.9982 40.7775C39.6427 40.7452 40.2593 40.4404 40.7349 39.9185C41.2555 39.3473 41.5436 38.5775 41.508 37.86L38.9982 40.7775ZM32.217 40.7529L32.2173 40.6029C32.2171 40.6029 32.217 40.6029 32.217 40.6029V40.7529ZM40.9216 34.8111C40.8986 34.7978 40.8759 34.7864 40.8566 34.7768C40.8562 34.7766 40.8558 34.7764 40.8553 34.7761C42.4671 33.3426 43.486 31.266 43.4864 28.9535L40.9216 34.8111ZM25.9362 41.921L25.9363 41.921L25.9362 41.921ZM25.966 40.5823V40.5823ZM38.7289 34.8886C38.7289 34.89 38.7288 34.8897 38.7289 34.8884V34.8886ZM33.749 30.3714C33.269 28.3792 31.5864 26.8621 29.5001 26.5417C30.4695 24.1267 32.8396 22.4109 35.6099 22.4109C39.2416 22.4109 42.1946 25.3468 42.1946 28.9519C42.1946 30.7956 41.4179 32.4593 40.1759 33.6498C39.8667 31.519 38.0251 29.875 35.7974 29.875C35.0726 29.875 34.3738 30.0473 33.749 30.3714Z" fill="white" stroke="white" stroke-width="0.3"/>
<path d="M21.9971 53.3336H22.0785L21.8977 53.0934C21.3885 52.4169 21.1454 51.4845 21.0249 50.8019C20.9736 50.5114 20.9453 50.2711 20.9273 50.1187C20.9243 50.0933 20.9216 50.0703 20.9191 50.05C20.9149 50.0154 20.9109 49.9846 20.907 49.9625C20.9054 49.9537 20.9022 49.9363 20.8961 49.9194C20.8961 49.9193 20.896 49.9191 20.896 49.9189C20.8943 49.9141 20.884 49.8844 20.8572 49.8585C20.8404 49.8423 20.8032 49.8146 20.7482 49.816C20.6932 49.8175 20.6576 49.847 20.6418 49.8638C20.6164 49.8908 20.6075 49.9208 20.606 49.9258C20.606 49.926 20.6059 49.9262 20.6059 49.9263C20.6028 49.9364 20.6009 49.9455 20.5998 49.9516C20.5976 49.9641 20.5959 49.9781 20.5945 49.9916C20.5916 50.0194 20.5887 50.0581 20.5855 50.1069L20.5855 50.107C20.5209 51.1063 20.2903 51.8564 20.0777 52.3545C19.9713 52.6037 19.8694 52.7899 19.7949 52.9129C19.7577 52.9743 19.7273 53.02 19.7066 53.0497C19.6963 53.0645 19.6884 53.0754 19.6833 53.0823L19.6778 53.0897L19.6768 53.091L19.6767 53.0911L19.6767 53.0911L19.6766 53.0912L19.6766 53.0913L19.6682 53.102L19.6618 53.1142C19.5852 53.2612 19.5395 53.4265 19.5395 53.6008C19.5395 54.2371 20.1148 54.7254 20.7863 54.7254C21.4579 54.7254 22.0332 54.2371 22.0332 53.6008C22.0332 53.5082 22.0206 53.4189 21.9971 53.3336ZM20.8849 50.1264C20.8881 50.0777 20.8907 50.044 20.8929 50.0224L20.8943 50.0101L20.8948 50.0066C20.8949 50.0057 20.895 50.0054 20.895 50.0054L20.8945 50.0075C20.8942 50.0087 20.8936 50.0113 20.8926 50.0147C20.8916 50.0177 20.8896 50.0239 20.8861 50.0315C20.8832 50.0377 20.8755 50.0531 20.8605 50.0692C20.8472 50.0833 20.8188 50.1073 20.7757 50.1141C20.7541 49.9311 20.7493 49.9023 20.7353 50.1151C20.6922 50.1103 20.6628 50.0879 20.6488 50.0743C20.6329 50.0589 20.6245 50.0438 20.6212 50.0376C20.6173 50.0302 20.615 50.0241 20.6139 50.021C20.6117 50.0151 20.6108 50.011 20.6108 50.011C20.6108 50.0109 20.6111 50.0122 20.6117 50.0153C20.6139 50.0278 20.617 50.0505 20.6213 50.0862C20.6222 50.0936 20.6232 50.1013 20.6241 50.1094C20.6241 50.1095 20.6241 50.1095 20.6241 50.1095C20.6257 50.123 20.6275 50.1375 20.6293 50.153C20.642 50.2608 20.6604 50.4173 20.6889 50.606L20.8849 50.1264Z" fill="white" stroke="white" stroke-width="0.3"/>
<path d="M29.2058 53.3336H29.2873L29.1065 53.0934C28.5972 52.4169 28.3541 51.4845 28.2336 50.8019C28.1823 50.5114 28.154 50.2711 28.1361 50.1187C28.1331 50.0933 28.1304 50.0703 28.1279 50.05C28.1237 50.0154 28.1197 49.9846 28.1157 49.9625C28.1142 49.9537 28.1109 49.9363 28.1049 49.9194C28.1048 49.9193 28.1048 49.9191 28.1047 49.9189C28.1031 49.9141 28.0927 49.8844 28.066 49.8585C28.0492 49.8423 28.012 49.8146 27.9569 49.816C27.902 49.8175 27.8663 49.847 27.8505 49.8638C27.8252 49.8908 27.8163 49.9208 27.8148 49.9258C27.8147 49.926 27.8147 49.9262 27.8146 49.9263C27.8115 49.9364 27.8097 49.9455 27.8086 49.9516C27.8063 49.9641 27.8046 49.9781 27.8032 49.9916C27.8003 50.0194 27.7975 50.0581 27.7943 50.1069L27.7943 50.107C27.7296 51.1063 27.499 51.8564 27.2864 52.3545C27.1801 52.6037 27.0782 52.7899 27.0037 52.9129C26.9664 52.9743 26.936 53.02 26.9154 53.0497C26.9051 53.0645 26.8972 53.0754 26.8921 53.0823L26.8865 53.0897L26.8855 53.091L26.8854 53.0911L26.8854 53.0911L26.8854 53.0912L26.8853 53.0913L26.8769 53.102L26.8705 53.1142C26.7939 53.2612 26.7482 53.4265 26.7482 53.6008C26.7482 54.2371 27.3235 54.7254 27.9951 54.7254C28.6666 54.7254 29.242 54.2371 29.242 53.6008C29.242 53.5082 29.2293 53.4189 29.2058 53.3336ZM28.0936 50.1264C28.0968 50.0777 28.0994 50.044 28.1016 50.0224L28.103 50.0101L28.1035 50.0066C28.1036 50.0057 28.1037 50.0054 28.1037 50.0054L28.1033 50.0075C28.103 50.0087 28.1024 50.0113 28.1013 50.0147C28.1004 50.0177 28.0984 50.0239 28.0948 50.0315C28.0919 50.0377 28.0842 50.0531 28.0692 50.0692C28.0559 50.0833 28.0276 50.1073 27.9845 50.1141C27.9629 49.9311 27.958 49.9023 27.9441 50.1151C27.9009 50.1103 27.8716 50.0879 27.8575 50.0743C27.8416 50.0589 27.8332 50.0438 27.83 50.0376C27.826 50.0302 27.8237 50.0241 27.8226 50.021C27.8205 50.0151 27.8196 50.011 27.8196 50.011C27.8196 50.0109 27.8199 50.0122 27.8204 50.0153C27.8227 50.0278 27.8257 50.0505 27.8301 50.0862C27.831 50.0936 27.8319 50.1013 27.8329 50.1094C27.8329 50.1095 27.8329 50.1095 27.8329 50.1095C27.8345 50.123 27.8362 50.1375 27.838 50.153C27.8507 50.2608 27.8691 50.4173 27.8976 50.606L28.0936 50.1264Z" fill="white" stroke="white" stroke-width="0.3"/>
<path d="M39.6359 48.373H39.7122L39.5318 48.1329C38.8893 47.2778 38.5842 46.1036 38.4335 45.2483C38.369 44.8822 38.3335 44.5795 38.3112 44.3889C38.3076 44.358 38.3043 44.3301 38.3013 44.3053C38.2961 44.2619 38.2912 44.2244 38.2866 44.198C38.2846 44.1869 38.2811 44.1682 38.2749 44.1506C38.2748 44.1504 38.2748 44.1503 38.2747 44.15C38.2729 44.1448 38.2628 44.1154 38.2369 44.0896C38.2209 44.0737 38.1845 44.0451 38.1292 44.0453C38.0732 44.0455 38.0364 44.0752 38.0199 44.0926C37.9939 44.12 37.9847 44.1509 37.9831 44.1562C37.9831 44.1564 37.983 44.1566 37.983 44.1567C37.9797 44.1673 37.9777 44.1772 37.9765 44.184C37.9739 44.1981 37.9719 44.2145 37.9702 44.2311C37.9668 44.2649 37.9632 44.3125 37.9593 44.3734L39.6359 48.373ZM39.6359 48.373C39.6733 48.4907 39.6936 48.6148 39.6936 48.7449C39.6936 49.518 38.9961 50.1158 38.1725 50.1158C37.3489 50.1158 36.6498 49.5165 36.6498 48.7449C36.6498 48.5297 36.7068 48.3321 36.8001 48.1536L36.8064 48.1415L36.8147 48.1309L36.8147 48.1308L36.8147 48.1308L36.8148 48.1307L36.8149 48.1306L36.8164 48.1286L36.8236 48.1189C36.8302 48.11 36.8403 48.0961 36.8534 48.0771C36.8796 48.0393 36.9179 47.9815 36.9648 47.9038C37.0587 47.7485 37.1867 47.5137 37.3202 47.1999C37.5873 46.5726 37.8768 45.6292 37.9593 44.3735L39.6359 48.373Z" fill="white" stroke="white" stroke-width="0.3"/>
<path d="M16.7794 47.6535L16.7793 47.6536L16.7793 47.6537L16.7792 47.6537L16.7716 47.6636L16.7655 47.6748C16.6802 47.8338 16.6315 48.012 16.6315 48.2015C16.6315 48.8885 17.2518 49.4169 17.9806 49.4169C18.7098 49.4169 19.3282 48.8883 19.3282 48.2015C19.3282 48.012 19.2795 47.8338 19.1942 47.6748L19.0636 47.7449V47.7446L19.1819 47.6556C18.6238 46.9129 18.3579 45.8915 18.2261 45.1455C18.17 44.8276 18.139 44.5648 18.1194 44.3983C18.1161 44.3705 18.1132 44.3455 18.1105 44.3233C18.1059 44.2855 18.1016 44.2522 18.0973 44.2285C18.0956 44.2188 18.0923 44.2009 18.0861 44.1838C18.0861 44.1836 18.086 44.1835 18.0859 44.1832C18.0842 44.1782 18.0739 44.1488 18.0476 44.123C18.0313 44.107 17.9946 44.0791 17.9398 44.0798C17.8846 44.0805 17.8484 44.1097 17.832 44.1269C17.8061 44.154 17.797 44.1846 17.7955 44.1897C17.7954 44.1899 17.7954 44.1901 17.7953 44.1902C17.7922 44.2005 17.7902 44.21 17.7891 44.2163C17.7867 44.2295 17.7848 44.2444 17.7833 44.259C17.7802 44.289 17.7771 44.331 17.7736 44.3843C17.702 45.4775 17.4501 46.299 17.2179 46.8449C17.1017 47.1179 16.9904 47.3222 16.909 47.4572C16.8683 47.5247 16.8351 47.5748 16.8124 47.6076C16.8011 47.624 16.7924 47.636 16.7868 47.6436L16.7807 47.6519L16.7794 47.6535L16.7794 47.6535Z" fill="white" stroke="white" stroke-width="0.3"/>
<path d="M26.5582 44.124C26.5538 44.1131 26.5429 44.0908 26.522 44.0708C26.505 44.0546 26.4679 44.0275 26.4134 44.0292C26.3592 44.0308 26.3239 44.0598 26.3082 44.0764C26.283 44.1031 26.2743 44.1326 26.273 44.137C26.2729 44.1371 26.2729 44.1373 26.2728 44.1374C26.2699 44.1467 26.2683 44.155 26.2674 44.1598C26.2655 44.1698 26.2643 44.1804 26.2633 44.1894C26.2614 44.208 26.2595 44.2333 26.2575 44.2641L26.2488 44.3944C26.198 44.9517 26.0655 45.3743 25.9434 45.6608C25.8776 45.8151 25.8148 45.9301 25.7692 46.0055C25.7464 46.0431 25.728 46.0709 25.7156 46.0887C25.7094 46.0976 25.7048 46.104 25.7019 46.1079L25.6989 46.1119L25.6986 46.1124L25.6985 46.1125L25.6985 46.1125L25.6984 46.1125L25.6903 46.123L25.6839 46.1352C25.6324 46.2338 25.6002 46.3452 25.6002 46.4663C25.6002 46.9053 25.9926 47.2306 26.4397 47.2306C26.8868 47.2306 27.2791 46.9053 27.2791 46.4663C27.2791 46.3468 27.2493 46.2345 27.1944 46.1332L27.1891 46.1234L27.1825 46.1146C26.8707 45.6991 26.7197 45.1229 26.6443 44.6954C26.6125 44.5149 26.5949 44.3658 26.5836 44.2698C26.5816 44.2533 26.5799 44.2384 26.5783 44.2251C26.5756 44.2036 26.5729 44.1826 26.5701 44.167L26.5701 44.1669C26.5696 44.1639 26.5686 44.1585 26.567 44.1518L26.5688 44.124H26.5582ZM26.2748 44.2196C26.2746 44.2188 26.2745 44.2184 26.2745 44.2183C26.2745 44.2183 26.2746 44.2187 26.2748 44.2196Z" fill="white" stroke="white" stroke-width="0.3"/>
</svg>
