<svg width="291" height="212" viewBox="0 0 291 212" fill="none" xmlns="http://www.w3.org/2000/svg">
<path d="M109.558 37.1404L267.06 2.99976L288 96.5452L132.546 132.507L125.035 103.601M108.648 36.0024L116.841 69.0051" stroke="white" stroke-width="4"/>
<path d="M71.5481 69.2327L78.6038 80.3853" stroke="white" stroke-width="4"/>
<path d="M-55 135.238L-17.2176 123.175L49.9009 50.0814C55.8755 43.5749 64.7449 40.547 73.4509 42.0416L112.517 48.7482M-47.5 226L13.7366 202.609C20.1095 202.609 36.6336 201.152 51.7465 195.326C66.8595 189.499 82.6249 180.759 88.6185 177.117M46.9668 155.95C52.2776 153.826 63.7185 147.756 66.996 140.473C70.2735 133.189 71.0929 124.237 71.0929 120.671L146.113 96.9808C154.919 94.1998 159.933 84.9357 157.445 76.042V76.042C154.886 66.8936 145.369 61.5775 136.237 64.1961L59.9403 86.0754" stroke="white" stroke-width="4"/>
<path d="M125.068 103.374L99.8585 111.452C93.7458 113.411 90.3309 119.908 92.1833 126.053V126.053C94.0815 132.351 100.773 135.87 107.038 133.864L131.181 126.134" stroke="white" stroke-width="4"/>
<path d="M97.6489 160.651L114.374 155.511C126.819 151.686 134.032 138.726 130.725 126.134L90.8315 139.014C84.8436 140.948 81.5736 147.385 83.5443 153.361C85.4781 159.225 91.7469 162.465 97.6489 160.651Z" stroke="white" stroke-width="4"/>
<path d="M98.1092 178.732L118.328 172.485C123.481 170.893 126.471 165.529 125.115 160.309C124.08 156.325 119.926 154.016 115.996 155.24L93.0395 162.392C88.4811 163.812 85.9675 168.689 87.4557 173.225C88.9104 177.66 93.6505 180.11 98.1092 178.732Z" stroke="white" stroke-width="4"/>
<rect x="187.171" y="80.3821" width="83.3033" height="26.4021" transform="rotate(-12.3025 187.171 80.3821)" fill="#C87732"/>
</svg>
