<svg width="86" height="86" viewBox="0 0 86 86" fill="none" xmlns="http://www.w3.org/2000/svg">
<g filter="url(#filter0_d_381_1659)">
<rect x="11" y="5" width="64" height="64" rx="32" fill="white" shape-rendering="crispEdges"/>
<path d="M43.0002 23.467C50.0683 23.47 56.0896 29.1471 56.5089 36.2026C56.6443 38.4837 56.2005 40.7619 55.2182 42.8252C55.0075 43.267 54.4613 43.4637 54.0157 43.2509C53.5701 43.0382 53.3793 42.4902 53.59 42.0482C54.682 39.7555 54.9994 37.1704 54.4947 34.6814C53.47 29.6277 49.1066 25.7522 43.9671 25.3317C35.9072 24.6713 29.5421 32.6017 31.7518 40.2596C32.4559 42.6992 33.9334 44.8445 35.962 46.3718C37.9907 47.8992 40.4606 48.7264 42.9999 48.7287C45.6338 48.7384 48.1927 47.8519 50.2559 46.2151C50.3318 46.1553 50.3984 46.0839 50.4729 46.0221H48.4127C47.9213 46.0221 47.5106 45.6113 47.5106 45.1199C47.5106 44.6285 47.9213 44.2178 48.4127 44.2178H52.9238C53.4147 44.2175 53.8261 44.6287 53.8259 45.1199V49.6307C53.8259 50.1221 53.4152 50.5329 52.9238 50.5329C52.4324 50.5329 52.0214 50.1221 52.0214 49.6307V47.0553C51.8055 47.2493 51.5991 47.4538 51.3721 47.6326C48.9913 49.5215 46.0389 50.5444 42.9997 50.5329C39.4107 50.5329 35.9687 49.1072 33.4308 46.5694C30.893 44.0316 29.4673 40.5893 29.4673 37.0005C29.4673 29.6297 35.6289 23.4681 42.9997 23.4681L43.0002 23.467Z" fill="#76378D"/>
<path fill-rule="evenodd" clip-rule="evenodd" d="M39.7508 41.2488C39.4037 40.8992 39.4037 40.3174 39.7508 39.9679L41.2213 38.4971C40.9707 38.0379 40.8402 37.5227 40.8423 36.9996C40.8461 35.6213 41.7775 34.3733 43.0978 33.9773V30.6844C43.0978 30.193 43.5086 29.7822 44 29.7822C44.4914 29.7822 44.9021 30.193 44.9021 30.6844V33.9773C46.3856 34.4188 47.348 35.9261 47.1243 37.4575C46.9007 38.989 45.5475 40.1582 44 40.1573C43.4766 40.1594 42.9617 40.0289 42.5025 39.7783L41.0318 41.2488C40.681 41.593 40.1015 41.593 39.7508 41.2488L39.7508 41.2488ZM42.6468 36.9996C42.5822 37.9554 43.6892 38.5932 44.5181 38.2503C45.0188 38.0433 45.3541 37.5412 45.3532 36.9996C45.3532 36.2626 44.7369 35.6464 44 35.6464C43.263 35.6464 42.6468 36.2626 42.6468 36.9996Z" fill="#76378D"/>
<rect x="11.5" y="5.5" width="63" height="63" rx="31.5" stroke="#76378D" shape-rendering="crispEdges"/>
</g>
<defs>
<filter id="filter0_d_381_1659" x="0" y="0" width="86" height="86" filterUnits="userSpaceOnUse" color-interpolation-filters="sRGB">
<feFlood flood-opacity="0" result="BackgroundImageFix"/>
<feColorMatrix in="SourceAlpha" type="matrix" values="0 0 0 0 0 0 0 0 0 0 0 0 0 0 0 0 0 0 127 0" result="hardAlpha"/>
<feOffset dy="6"/>
<feGaussianBlur stdDeviation="5.5"/>
<feComposite in2="hardAlpha" operator="out"/>
<feColorMatrix type="matrix" values="0 0 0 0 0.595255 0 0 0 0 0.402187 0 0 0 0 0.675 0 0 0 0.33 0"/>
<feBlend mode="normal" in2="BackgroundImageFix" result="effect1_dropShadow_381_1659"/>
<feBlend mode="normal" in="SourceGraphic" in2="effect1_dropShadow_381_1659" result="shape"/>
</filter>
</defs>
</svg>
