<svg width="86" height="86" viewBox="0 0 86 86" fill="none" xmlns="http://www.w3.org/2000/svg">
<g filter="url(#filter0_d_381_1601)">
<rect x="11" y="5" width="64" height="64" rx="32" fill="#76378D" shape-rendering="crispEdges"/>
<path d="M53.0439 26.5126V20.0875C53.0439 18.385 51.6586 17 49.9564 17H35.2195C33.5169 17 32.132 18.385 32.132 20.0875V23.7923C32.132 24.1335 32.4082 24.4097 32.7493 24.4097H51.8088V46.9139C51.8088 47.2548 52.0853 47.5313 52.4261 47.5313C52.767 47.5313 53.0435 47.2548 53.0435 46.9139L53.0438 31.2309C53.5136 31.1358 53.8679 30.7195 53.8679 30.2224V27.5205C53.8679 27.0235 53.5136 26.6074 53.0438 26.5123L53.0439 26.5126ZM51.8088 23.175H33.3661V20.0875C33.3661 19.0661 34.1972 18.2351 35.2186 18.2351H49.9555C50.9764 18.2351 51.8079 19.0661 51.8079 20.0875L51.8088 23.175ZM42.5882 55.0034C43.5341 55.0034 44.3046 54.2332 44.3046 53.2868C44.3046 52.3403 43.5344 51.5701 42.5882 51.5701C41.6417 51.5701 40.8716 52.3403 40.8716 53.2868C40.8716 54.2329 41.6414 55.0034 42.5882 55.0034ZM42.5882 52.8056C42.8541 52.8056 43.0698 53.0212 43.0698 53.2871C43.0698 53.553 42.8541 53.7687 42.5882 53.7687C42.3226 53.7687 42.1066 53.553 42.1066 53.2871C42.1066 53.0212 42.3226 52.8056 42.5882 52.8056ZM52.427 49.59H33.3669V27.0858C33.3669 26.7447 33.0906 26.4684 32.7495 26.4684C32.4084 26.4684 32.1321 26.7447 32.1321 27.0858V53.9125C32.1321 55.615 33.5171 57 35.2196 57H49.9565C51.6588 57 53.044 55.615 53.044 53.9125V50.2077C53.044 49.8665 52.7678 49.59 52.4267 49.59L52.427 49.59ZM51.8094 53.9126C51.8094 54.934 50.9778 55.765 49.9569 55.765H35.22C34.1986 55.765 33.3676 54.934 33.3676 53.9126V50.8251H51.8102L51.8094 53.9126ZM48.398 37.0004C48.398 33.7969 45.7921 31.1901 42.5886 31.1901C39.3845 31.1901 36.7783 33.7969 36.7783 37.0004C36.7783 40.2036 39.3851 42.8099 42.5886 42.8099C45.7921 42.8099 48.398 40.2036 48.398 37.0004ZM44.9831 41.0424C45.421 40.4899 45.7645 39.8605 45.9962 39.1759H46.7554C46.3494 39.9509 45.7329 40.5964 44.9831 41.0424ZM40.0311 38.0703C39.9686 37.7341 39.935 37.3858 39.935 37.0297C39.935 36.6547 39.9717 36.2863 40.0421 35.9302H45.1347C45.2057 36.2865 45.2418 36.6547 45.2418 37.0297C45.2418 37.3858 45.208 37.7341 45.1462 38.0703H40.0311ZM47.2927 37.0004C47.2927 37.3694 47.2462 37.726 47.1655 38.0703H46.2656C46.317 37.7312 46.3466 37.384 46.3466 37.0297C46.3466 36.6564 46.3127 36.2891 46.2532 35.9302H47.1649C47.2462 36.2745 47.2927 36.6317 47.2927 37.0004L47.2927 37.0004ZM46.7555 34.8243H45.9761C45.7349 34.1294 45.382 33.4884 44.9349 32.9285C45.7067 33.3753 46.3405 34.0328 46.7555 34.8243ZM42.5888 32.3705C43.5746 32.8983 44.3416 33.7727 44.7922 34.8246L40.3849 34.8243C40.8358 33.7727 41.6024 32.8983 42.5888 32.3705ZM40.2416 32.9288C39.795 33.4887 39.4418 34.1299 39.2004 34.8246H38.4208C38.8357 34.0328 39.4697 33.3753 40.2416 32.9288ZM37.8835 37.0004C37.8835 36.6314 37.9303 36.2741 38.011 35.9296H38.9227C38.8638 36.2891 38.8296 36.6558 38.8296 37.0291C38.8296 37.3834 38.8592 37.7306 38.9115 38.0697H38.0106C37.9305 37.7263 37.8835 37.3691 37.8835 37.0004ZM38.4207 39.1759H39.1803C39.412 39.8604 39.7554 40.4902 40.1942 41.0427C39.4442 40.5965 38.827 39.9509 38.4207 39.1759ZM40.3619 39.1759H44.8145C44.3714 40.2269 43.6013 41.0935 42.5888 41.6308C41.5765 41.0932 40.8055 40.2269 40.3619 39.1759Z" fill="white" stroke="white" stroke-width="0.3"/>
<rect x="11.5" y="5.5" width="63" height="63" rx="31.5" stroke="#76378D" shape-rendering="crispEdges"/>
</g>
<defs>
<filter id="filter0_d_381_1601" x="0" y="0" width="86" height="86" filterUnits="userSpaceOnUse" color-interpolation-filters="sRGB">
<feFlood flood-opacity="0" result="BackgroundImageFix"/>
<feColorMatrix in="SourceAlpha" type="matrix" values="0 0 0 0 0 0 0 0 0 0 0 0 0 0 0 0 0 0 127 0" result="hardAlpha"/>
<feOffset dy="6"/>
<feGaussianBlur stdDeviation="5.5"/>
<feComposite in2="hardAlpha" operator="out"/>
<feColorMatrix type="matrix" values="0 0 0 0 0.595255 0 0 0 0 0.402187 0 0 0 0 0.675 0 0 0 0.33 0"/>
<feBlend mode="normal" in2="BackgroundImageFix" result="effect1_dropShadow_381_1601"/>
<feBlend mode="normal" in="SourceGraphic" in2="effect1_dropShadow_381_1601" result="shape"/>
</filter>
</defs>
</svg>
