<svg width="86" height="86" viewBox="0 0 86 86" fill="none" xmlns="http://www.w3.org/2000/svg">
<g filter="url(#filter0_d_381_1728)">
<rect x="11" y="5" width="64" height="64" rx="32" fill="white" shape-rendering="crispEdges"/>
<path d="M24.3723 43.5602C24.529 43.7002 24.6226 43.9022 24.6306 44.1173C24.6387 44.3324 24.5601 44.5413 24.4143 44.6936C24.2683 44.8457 24.0681 44.9276 23.8619 44.9194C23.6557 44.9109 23.4621 44.8133 23.3279 44.6498C22.0405 43.307 21.1148 41.6342 20.6436 39.7997C20.1724 37.9653 20.1724 36.0339 20.6436 34.1994C21.1148 32.365 22.0405 30.6923 23.3279 29.3493C23.5185 29.1789 23.7789 29.121 24.0198 29.1953C24.2605 29.2695 24.4489 29.4659 24.5199 29.717C24.5912 29.9682 24.5355 30.2399 24.3723 30.4389C23.2675 31.59 22.4731 33.0245 22.0686 34.5977C21.6642 36.1711 21.6642 37.8276 22.0686 39.401C22.473 40.9742 23.2675 42.4085 24.3723 43.5597L24.3723 43.5602ZM24.7352 37C24.7341 35.36 25.3575 33.7866 26.4685 32.6263C26.6252 32.4862 26.7189 32.2844 26.7269 32.0692C26.7348 31.8541 26.6564 31.6452 26.5105 31.4931C26.3645 31.3408 26.1644 31.259 25.958 31.2673C25.7519 31.2756 25.5583 31.3732 25.424 31.5367C24.0355 32.9859 23.2554 34.951 23.2554 37.0001C23.2554 39.0492 24.0355 41.0141 25.424 42.4635C25.6148 42.6337 25.8752 42.6919 26.116 42.6175C26.3567 42.5432 26.545 42.3467 26.6163 42.0956C26.6874 41.8445 26.6318 41.5728 26.4685 41.3739C25.3575 40.2136 24.734 38.6402 24.7352 37.0002V37ZM28.5648 33.7236C28.4259 33.5796 28.2383 33.4989 28.0425 33.4989C27.8469 33.4989 27.6591 33.5796 27.5204 33.7236C26.688 34.593 26.2206 35.7714 26.2206 37C26.2206 38.2285 26.688 39.407 27.5204 40.2763C27.711 40.4467 27.9714 40.5046 28.2121 40.4305C28.4529 40.3561 28.6412 40.1597 28.7124 39.9086C28.7837 39.6574 28.728 39.3857 28.5648 39.1867C28.0084 38.607 27.6958 37.8203 27.6958 37C27.6958 36.1796 28.0084 35.3929 28.5648 34.8132C28.7027 34.6684 28.7801 34.4726 28.7801 34.2684C28.7801 34.0643 28.7027 33.8684 28.5648 33.7236ZM40.2902 29.2727V44.7273C40.2902 44.9322 40.2121 45.1288 40.0732 45.2737C39.9344 45.4186 39.7459 45.5 39.5494 45.5H30.6608C30.4644 45.5 30.2759 45.4186 30.137 45.2737C29.9982 45.1288 29.9201 44.9322 29.9201 44.7273V29.2727C29.9201 29.0678 29.9982 28.8712 30.137 28.7263C30.2759 28.5814 30.4644 28.5 30.6608 28.5H39.5494C39.7459 28.5 39.9344 28.5814 40.0732 28.7263C40.2121 28.8712 40.2902 29.0678 40.2902 29.2727ZM38.8087 30.0455H37.7421C37.7441 30.2286 37.6838 30.4066 37.5717 30.5477L36.9346 31.3205H36.9348C36.7939 31.4921 36.5882 31.5909 36.3718 31.5909H33.8385C33.622 31.5909 33.4163 31.4921 33.2755 31.3205L32.6384 30.5477H32.6386C32.5265 30.4066 32.4661 30.2286 32.4681 30.0455H31.4015V43.9545H38.8087L38.8087 30.0455Z" fill="#76378D"/>
<path d="M48.2902 28.2903V33.3707H53.3706V28.2903H48.2902ZM51.9193 31.9194H49.7419V29.742H51.9193V31.9194Z" fill="#76378D"/>
<path d="M48.2902 40.6289V45.7097H53.3706V40.6289H48.2902ZM51.9193 44.2584H49.7419V42.0809H51.9193V44.2584Z" fill="#76378D"/>
<path d="M60.6292 28.2903V33.3707H65.7095V28.2903H60.6292ZM64.258 31.9194H62.0806V29.742H64.258V31.9194Z" fill="#76378D"/>
<path d="M64.2577 34.8226V39.1774H60.6289V40.6288H65.7093V34.8225L64.2577 34.8226Z" fill="#76378D"/>
<path d="M60.6292 42.0808V45.7096H62.0806V43.5322H64.258V45.7096H65.7097V42.0808H60.6292Z" fill="#76378D"/>
<path d="M54.8223 28.2903V29.742H57.7254V33.3708H59.1771V28.2904L54.8223 28.2903Z" fill="#76378D"/>
<path d="M57.7253 34.8223V37.7257H54.8221V42.0806H57.7253V45.7094H59.177V40.6286H56.2739V39.1772H59.177V36.2741H60.6287V37.7258H62.0801V34.8223L57.7253 34.8223Z" fill="#76378D"/>
<path d="M54.8224 43.5322H56.2741V45.7097H54.8224V43.5322Z" fill="#76378D"/>
<path d="M51.193 37.7258H53.3704V39.1772H51.193V37.7258Z" fill="#76378D"/>
<path d="M54.8224 31.1934V34.8225H48.2902V39.1774H49.7419V36.2742H56.2742V31.1934L54.8224 31.1934Z" fill="#76378D"/>
<rect x="11.5" y="5.5" width="63" height="63" rx="31.5" stroke="#76378D" shape-rendering="crispEdges"/>
</g>
<defs>
<filter id="filter0_d_381_1728" x="0" y="0" width="86" height="86" filterUnits="userSpaceOnUse" color-interpolation-filters="sRGB">
<feFlood flood-opacity="0" result="BackgroundImageFix"/>
<feColorMatrix in="SourceAlpha" type="matrix" values="0 0 0 0 0 0 0 0 0 0 0 0 0 0 0 0 0 0 127 0" result="hardAlpha"/>
<feOffset dy="6"/>
<feGaussianBlur stdDeviation="5.5"/>
<feComposite in2="hardAlpha" operator="out"/>
<feColorMatrix type="matrix" values="0 0 0 0 0.595255 0 0 0 0 0.402187 0 0 0 0 0.675 0 0 0 0.33 0"/>
<feBlend mode="normal" in2="BackgroundImageFix" result="effect1_dropShadow_381_1728"/>
<feBlend mode="normal" in="SourceGraphic" in2="effect1_dropShadow_381_1728" result="shape"/>
</filter>
</defs>
</svg>
